solid ITK-SNAP coord sys for 3D Slicer: SPACE=RAS
 facet normal 0.11655090849441567 0.92626102864019011 -0.35840813683780032
  outer loop
   vertex -95.469779968261719 -128.4375 90
   vertex -95.625 -128.4375 89.94952392578125
   vertex -95.625 -128.41796875 90
  endloop
 endfacet
 facet normal -0.21155583325042979 0.91150814091884391 -0.35269964340269655
  outer loop
   vertex -95.625 -128.41796875 90
   vertex -95.625 -128.4375 89.94952392578125
   vertex -95.709152221679688 -128.4375 90
  endloop
 endfacet
 facet normal -0.22518711060227492 0.97023977732152056 -0.08902550040120559
  outer loop
   vertex -95.625 -128.41796875 90
   vertex -95.709152221679688 -128.4375 90
   vertex -95.625 -128.28033447265625 91.5
  endloop
 endfacet
 facet normal -0.25772119457402221 0.96235095771955992 -0.086373723108273667
  outer loop
   vertex -95.625 -128.28033447265625 91.5
   vertex -95.709152221679688 -128.4375 90
   vertex -96.211868286132812 -128.4375 91.5
  endloop
 endfacet
 facet normal -0.25336132752516988 0.94607087552869495 0.20188594847351859
  outer loop
   vertex -95.625 -128.28033447265625 91.5
   vertex -96.211868286132812 -128.4375 91.5
   vertex -95.625 -128.4375 92.236503601074219
  endloop
 endfacet
 facet normal -0.31485365911396518 -0.91538185676787476 0.25088489321349178
  outer loop
   vertex -95.625 -128.4375 92.236503601074219
   vertex -96.211868286132812 -128.4375 91.5
   vertex -95.625 -128.63935852050781 91.5
  endloop
 endfacet
 facet normal -0.63533559571341935 -0.74476978767988289 0.20412409014797059
  outer loop
   vertex -95.625 -128.4375 92.236503601074219
   vertex -95.625 -128.63935852050781 91.5
   vertex -95.37969970703125 -128.4375 93
  endloop
 endfacet
 facet normal -0.67953945461006127 -0.7041565680795282 0.20588748689204328
  outer loop
   vertex -95.37969970703125 -128.4375 93
   vertex -95.625 -128.63935852050781 91.5
   vertex -94.862709045410156 -129.375 91.5
  endloop
 endfacet
 facet normal -0.92591254674006995 -0.36690640981782413 -0.089808920625473701
  outer loop
   vertex -95.37969970703125 -128.4375 93
   vertex -94.862709045410156 -129.375 91.5
   vertex -95.008201599121094 -129.375 93
  endloop
 endfacet
 facet normal -0.48043603353769915 -0.8757908803138007 -0.046599910276102309
  outer loop
   vertex -95.008201599121094 -129.375 93
   vertex -94.862709045410156 -129.375 91.5
   vertex -94.6875 -129.47111511230469 91.5
  endloop
 endfacet
 facet normal -0.59605870648588943 -0.79931499161406117 -0.076220486769513041
  outer loop
   vertex -95.008201599121094 -129.375 93
   vertex -94.6875 -129.47111511230469 91.5
   vertex -94.6875 -129.61415100097656 93
  endloop
 endfacet
 facet normal -0.095784463654062665 -0.99090713030907729 -0.094490187983370874
  outer loop
   vertex -94.6875 -129.61415100097656 93
   vertex -94.6875 -129.47111511230469 91.5
   vertex -93.75 -129.56173706054688 91.5
  endloop
 endfacet
 facet normal -0.088543549758262785 -0.99199775659147804 -0.090002726145827147
  outer loop
   vertex -94.6875 -129.61415100097656 93
   vertex -93.75 -129.56173706054688 91.5
   vertex -93.75 -129.69783020019531 93
  endloop
 endfacet
 facet normal 0.48243496293613264 -0.87234869217304123 -0.079147114924025014
  outer loop
   vertex -93.75 -129.69783020019531 93
   vertex -93.75 -129.56173706054688 91.5
   vertex -93.412338256835938 -129.375 91.5
  endloop
 endfacet
 facet normal 0.53888142422439578 -0.84027500048035253 -0.059537670374564242
  outer loop
   vertex -93.75 -129.69783020019531 93
   vertex -93.412338256835938 -129.375 91.5
   vertex -93.246612548828125 -129.375 93
  endloop
 endfacet
 facet normal 0.93823668312352926 0.33010080176985301 -0.10365995905969901
  outer loop
   vertex -93.246612548828125 -129.375 93
   vertex -93.412338256835938 -129.375 91.5
   vertex -93.576454162597656 -128.4375 93
  endloop
 endfacet
 facet normal 0.85506583256256785 0.30083871369773352 0.42232510027794445
  outer loop
   vertex -93.246612548828125 -129.375 93
   vertex -93.576454162597656 -128.4375 93
   vertex -93.75 -128.4375 93.351371765136719
  endloop
 endfacet
 facet normal 0.58231580680071038 0.76038677711227087 0.28761128340670417
  outer loop
   vertex -93.75 -128.4375 93.351371765136719
   vertex -93.576454162597656 -128.4375 93
   vertex -93.75 -128.30459594726562 93
  endloop
 endfacet
 facet normal 0.20484539607549032 0.91549379016201848 0.34627948810384024
  outer loop
   vertex -93.75 -128.4375 93.351371765136719
   vertex -93.75 -128.30459594726562 93
   vertex -94.6875 -128.4375 93.905960083007812
  endloop
 endfacet
 facet normal 0.17833704456370983 0.93013820186709095 0.32099661051751965
  outer loop
   vertex -94.6875 -128.4375 93.905960083007812
   vertex -93.75 -128.30459594726562 93
   vertex -94.6875 -128.12484741210938 93
  endloop
 endfacet
 facet normal -0.39267400268806796 0.86936376075849264 0.30002296427570635
  outer loop
   vertex -94.6875 -128.4375 93.905960083007812
   vertex -94.6875 -128.12484741210938 93
   vertex -95.37969970703125 -128.4375 93
  endloop
 endfacet
 facet normal -0.40808391679605116 0.90348066381337555 0.13111142958466956
  outer loop
   vertex -95.37969970703125 -128.4375 93
   vertex -94.6875 -128.12484741210938 93
   vertex -95.625 -128.4375 92.236503601074219
  endloop
 endfacet
 facet normal 0.12819613799923585 -0.91003155184733187 -0.39421862569444577
  outer loop
   vertex -95.625 -128.4375 89.94952392578125
   vertex -95.469779968261719 -128.4375 90
   vertex -95.625 -128.45936584472656 90
  endloop
 endfacet
 facet normal 0.13851830173720001 -0.98330594865433851 -0.11799191253994321
  outer loop
   vertex -95.625 -128.45936584472656 90
   vertex -95.469779968261719 -128.4375 90
   vertex -95.625 -128.63935852050781 91.5
  endloop
 endfacet
 facet normal -0.32318243532290469 -0.9395963145327868 -0.11274696987130486
  outer loop
   vertex -95.625 -128.45936584472656 90
   vertex -95.625 -128.63935852050781 91.5
   vertex -96.211868286132812 -128.4375 91.5
  endloop
 endfacet
 facet normal -0.23192591402488477 -0.89258298384315393 -0.38666004106627555
  outer loop
   vertex -95.625 -128.4375 89.94952392578125
   vertex -95.625 -128.45936584472656 90
   vertex -95.709152221679688 -128.4375 90
  endloop
 endfacet
 facet normal -0.25059738264730291 -0.96444142728532833 -0.083986219977803964
  outer loop
   vertex -95.709152221679688 -128.4375 90
   vertex -95.625 -128.45936584472656 90
   vertex -96.211868286132812 -128.4375 91.5
  endloop
 endfacet
 facet normal 0.60087457438902714 0.75548758589017495 -0.26112880618315737
  outer loop
   vertex -93.515213012695312 -128.4375 91.5
   vertex -93.75 -128.4375 90.959739685058594
   vertex -93.75 -128.25076293945312 91.5
  endloop
 endfacet
 facet normal 0.16905244122399762 0.93153201693295196 -0.32197728731237107
  outer loop
   vertex -93.75 -128.25076293945312 91.5
   vertex -93.75 -128.4375 90.959739685058594
   vertex -94.6875 -128.08062744140625 91.5
  endloop
 endfacet
 facet normal 0.17848622592659857 0.98351513192199258 0.028994006879780421
  outer loop
   vertex -93.75 -128.25076293945312 91.5
   vertex -94.6875 -128.08062744140625 91.5
   vertex -94.6875 -128.12484741210938 93
  endloop
 endfacet
 facet normal -0.20825957507101414 0.977648860969064 0.02882106932666369
  outer loop
   vertex -94.6875 -128.12484741210938 93
   vertex -94.6875 -128.08062744140625 91.5
   vertex -95.625 -128.28033447265625 91.5
  endloop
 endfacet
 facet normal -0.44442609396405164 0.87609029656032 0.18695250540366284
  outer loop
   vertex -94.6875 -128.12484741210938 93
   vertex -95.625 -128.28033447265625 91.5
   vertex -95.625 -128.4375 92.236503601074219
  endloop
 endfacet
 facet normal 0.20570701415916789 0.94197486538620168 -0.26526963133077852
  outer loop
   vertex -94.6875 -128.08062744140625 91.5
   vertex -93.75 -128.4375 90.959739685058594
   vertex -94.6875 -128.4375 90.232742309570312
  endloop
 endfacet
 facet normal 0.46461917948410841 -0.65203396400100622 -0.59915000446019206
  outer loop
   vertex -94.6875 -128.4375 90.232742309570312
   vertex -93.75 -128.4375 90.959739685058594
   vertex -94.6875 -129.375 91.25299072265625
  endloop
 endfacet
 facet normal 0.19734627379596781 -0.72185580283978978 -0.66330886329474725
  outer loop
   vertex -94.6875 -128.4375 90.232742309570312
   vertex -94.6875 -129.375 91.25299072265625
   vertex -95.469779968261719 -128.4375 90
  endloop
 endfacet
 facet normal -0.63551944597286436 -0.75376351134708064 -0.16719929052499891
  outer loop
   vertex -95.469779968261719 -128.4375 90
   vertex -94.6875 -129.375 91.25299072265625
   vertex -95.625 -128.63935852050781 91.5
  endloop
 endfacet
 facet normal 0.11512038336215044 0.91489226543084012 -0.38693596368052496
  outer loop
   vertex -95.469779968261719 -128.4375 90
   vertex -95.625 -128.41796875 90
   vertex -94.6875 -128.4375 90.232742309570312
  endloop
 endfacet
 facet normal 0.087016640676430668 0.95890941886276171 -0.27003857254412672
  outer loop
   vertex -94.6875 -128.4375 90.232742309570312
   vertex -95.625 -128.41796875 90
   vertex -94.6875 -128.08062744140625 91.5
  endloop
 endfacet
 facet normal -0.20751217640918251 0.97414029023381521 -0.089383396585174704
  outer loop
   vertex -94.6875 -128.08062744140625 91.5
   vertex -95.625 -128.41796875 90
   vertex -95.625 -128.28033447265625 91.5
  endloop
 endfacet
 facet normal 0.91490008063402362 -0.069809451112598259 -0.39759839410039743
  outer loop
   vertex -93.515213012695312 -128.4375 91.5
   vertex -93.75 -129.375 91.124343872070312
   vertex -93.75 -128.4375 90.959739685058594
  endloop
 endfacet
 facet normal -0.13393806291794733 -0.1713743154699747 -0.97605913719353377
  outer loop
   vertex -93.75 -128.4375 90.959739685058594
   vertex -93.75 -129.375 91.124343872070312
   vertex -94.6875 -129.375 91.25299072265625
  endloop
 endfacet
 facet normal 0.74125173197877703 0.081339830354832596 -0.66628049786580923
  outer loop
   vertex -93.515213012695312 -128.4375 91.5
   vertex -93.412338256835938 -129.375 91.5
   vertex -93.75 -129.375 91.124343872070312
  endloop
 endfacet
 facet normal 0.44378277278809286 -0.80245701740706876 -0.39889796413451833
  outer loop
   vertex -93.75 -129.375 91.124343872070312
   vertex -93.412338256835938 -129.375 91.5
   vertex -93.75 -129.56173706054688 91.5
  endloop
 endfacet
 facet normal -0.060968831709634207 -0.89379917673692622 -0.44430376233423385
  outer loop
   vertex -93.75 -129.375 91.124343872070312
   vertex -93.75 -129.56173706054688 91.5
   vertex -94.6875 -129.375 91.25299072265625
  endloop
 endfacet
 facet normal -0.089720546568221371 -0.92817484107619486 -0.36116711909679711
  outer loop
   vertex -94.6875 -129.375 91.25299072265625
   vertex -93.75 -129.56173706054688 91.5
   vertex -94.6875 -129.47111511230469 91.5
  endloop
 endfacet
 facet normal -0.45519804383646006 -0.82978433693477582 -0.32288185930023183
  outer loop
   vertex -94.6875 -129.375 91.25299072265625
   vertex -94.6875 -129.47111511230469 91.5
   vertex -94.862709045410156 -129.375 91.5
  endloop
 endfacet
 facet normal -0.62294693041509919 -0.64551391334368335 -0.44186978802145888
  outer loop
   vertex -95.625 -128.63935852050781 91.5
   vertex -94.6875 -129.375 91.25299072265625
   vertex -94.862709045410156 -129.375 91.5
  endloop
 endfacet
 facet normal 0.4374759850406118 0.82429225748553769 -0.35938424668054453
  outer loop
   vertex -84.923820495605469 -135 91.5
   vertex -85.3125 -135 91.026863098144531
   vertex -85.3125 -134.79371643066406 91.5
  endloop
 endfacet
 facet normal -0.77241923904723508 0.58218550456925822 -0.25382781057072651
  outer loop
   vertex -85.3125 -134.79371643066406 91.5
   vertex -85.3125 -135 91.026863098144531
   vertex -85.467979431152344 -135 91.5
  endloop
 endfacet
 facet normal -0.78002547240819453 0.58791845189017666 0.21427122140276056
  outer loop
   vertex -85.3125 -134.79371643066406 91.5
   vertex -85.467979431152344 -135 91.5
   vertex -85.3125 -135 92.066001892089844
  endloop
 endfacet
 facet normal -0.89485395109585153 0.37257444215738666 0.24581434307065064
  outer loop
   vertex -85.3125 -135 92.066001892089844
   vertex -85.467979431152344 -135 91.5
   vertex -85.3125 -135.61622619628906 93
  endloop
 endfacet
 facet normal 0.79894928371756591 0.50198528018521393 0.33119604545429077
  outer loop
   vertex -85.3125 -135 92.066001892089844
   vertex -85.3125 -135.61622619628906 93
   vertex -85.110641479492188 -135.9375 93
  endloop
 endfacet
 facet normal 0.77703746574489119 0.48821793561335386 0.39731099176110407
  outer loop
   vertex -85.110641479492188 -135.9375 93
   vertex -85.3125 -135.61622619628906 93
   vertex -85.3125 -135.9375 93.394783020019531
  endloop
 endfacet
 facet normal 0.88070206785754934 -0.14689835272467716 0.45031626845830591
  outer loop
   vertex -85.110641479492188 -135.9375 93
   vertex -85.3125 -135.9375 93.394783020019531
   vertex -85.267013549804688 -136.875 93
  endloop
 endfacet
 facet normal 0.99827059993488942 0.026294407260176008 0.052577689683667647
  outer loop
   vertex -85.267013549804688 -136.875 93
   vertex -85.3125 -135.9375 93.394783020019531
   vertex -85.3125 -136.875 93.863632202148438
  endloop
 endfacet
 facet normal 0.81868650679118105 -0.57261953935816767 0.043119215476324857
  outer loop
   vertex -85.267013549804688 -136.875 93
   vertex -85.3125 -136.875 93.863632202148438
   vertex -85.3125 -136.94003295898438 93
  endloop
 endfacet
 facet normal -0.61620370075936048 -0.78536332766889871 0.059139180948865638
  outer loop
   vertex -85.3125 -136.94003295898438 93
   vertex -85.3125 -136.875 93.863632202148438
   vertex -85.3953857421875 -136.875 93
  endloop
 endfacet
 facet normal -0.58494360388341304 -0.74552174009730166 -0.31943436777869705
  outer loop
   vertex -85.3125 -136.94003295898438 93
   vertex -85.3953857421875 -136.875 93
   vertex -85.3125 -136.875 92.848220825195312
  endloop
 endfacet
 facet normal -0.56965908843635971 -0.7607319106611794 -0.31108758101802614
  outer loop
   vertex -85.3125 -136.875 92.848220825195312
   vertex -85.3953857421875 -136.875 93
   vertex -85.3125 -136.32366943359375 91.5
  endloop
 endfacet
 facet normal 0.55985818404822774 -0.76694023165670966 -0.31362636180744291
  outer loop
   vertex -85.3125 -136.875 92.848220825195312
   vertex -85.3125 -136.32366943359375 91.5
   vertex -84.783493041992188 -135.9375 91.5
  endloop
 endfacet
 facet normal 0.52634413482984188 -0.72102990399935951 -0.45064146421395773
  outer loop
   vertex -84.783493041992188 -135.9375 91.5
   vertex -85.3125 -136.32366943359375 91.5
   vertex -85.3125 -135.9375 90.882125854492188
  endloop
 endfacet
 facet normal 0.75475749464412645 0.11297407714021336 -0.64620274076549578
  outer loop
   vertex -84.783493041992188 -135.9375 91.5
   vertex -85.3125 -135.9375 90.882125854492188
   vertex -84.923820495605469 -135 91.5
  endloop
 endfacet
 facet normal 0.76901716892234784 0.097532616638156294 -0.63174360510761929
  outer loop
   vertex -84.923820495605469 -135 91.5
   vertex -85.3125 -135.9375 90.882125854492188
   vertex -85.3125 -135 91.026863098144531
  endloop
 endfacet
 facet normal -0.94761736771058303 0.071071302578293721 -0.31140037630531275
  outer loop
   vertex -85.3125 -135 91.026863098144531
   vertex -85.538291931152344 -135.9375 91.5
   vertex -85.467979431152344 -135 91.5
  endloop
 endfacet
 facet normal -0.99616312189829992 0.074712234142372491 0.045575395108414754
  outer loop
   vertex -85.467979431152344 -135 91.5
   vertex -85.538291931152344 -135.9375 91.5
   vertex -85.46966552734375 -135.9375 93
  endloop
 endfacet
 facet normal -0.86642402081367342 0.42385026902782408 0.26393250198129886
  outer loop
   vertex -85.467979431152344 -135 91.5
   vertex -85.46966552734375 -135.9375 93
   vertex -85.3125 -135.61622619628906 93
  endloop
 endfacet
 facet normal -0.84581903400866232 0.41377041321725105 0.33672571457297212
  outer loop
   vertex -85.3125 -135.61622619628906 93
   vertex -85.46966552734375 -135.9375 93
   vertex -85.3125 -135.9375 93.394783020019531
  endloop
 endfacet
 facet normal -0.93793417551827829 0.052916337418678475 -0.3427525982819678
  outer loop
   vertex -85.3125 -135 91.026863098144531
   vertex -85.3125 -135.9375 90.882125854492188
   vertex -85.538291931152344 -135.9375 91.5
  endloop
 endfacet
 facet normal -0.82327207996920859 -0.48136433552016611 -0.30085122375087953
  outer loop
   vertex -85.538291931152344 -135.9375 91.5
   vertex -85.3125 -135.9375 90.882125854492188
   vertex -85.3125 -136.32366943359375 91.5
  endloop
 endfacet
 facet normal -0.84070461399151919 -0.49155707782280328 -0.22712857868546002
  outer loop
   vertex -85.538291931152344 -135.9375 91.5
   vertex -85.3125 -136.32366943359375 91.5
   vertex -85.3953857421875 -136.875 93
  endloop
 endfacet
 facet normal 0.60775907737575696 0.793610547248355 0.028481628526735397
  outer loop
   vertex -93.576454162597656 -128.4375 93
   vertex -93.75 -128.25076293945312 91.5
   vertex -93.75 -128.30459594726562 93
  endloop
 endfacet
 facet normal 0.18818506000078997 0.98150170513145463 0.035224792640215781
  outer loop
   vertex -93.75 -128.30459594726562 93
   vertex -93.75 -128.25076293945312 91.5
   vertex -94.6875 -128.12484741210938 93
  endloop
 endfacet
 facet normal 0.62227096001327631 0.78238954581829412 0.02540572609469894
  outer loop
   vertex -93.75 -128.25076293945312 91.5
   vertex -93.576454162597656 -128.4375 93
   vertex -93.515213012695312 -128.4375 91.5
  endloop
 endfacet
 facet normal 0.99321555954599028 0.10898859541762804 0.040550441978330812
  outer loop
   vertex -93.515213012695312 -128.4375 91.5
   vertex -93.576454162597656 -128.4375 93
   vertex -93.412338256835938 -129.375 91.5
  endloop
 endfacet
 facet normal 0.44624268352672003 0.84081047090275729 0.30643958526788728
  outer loop
   vertex -85.3125 -134.79371643066406 91.5
   vertex -85.3125 -135 92.066001892089844
   vertex -84.923820495605469 -135 91.5
  endloop
 endfacet
 facet normal 0.66217876240436802 0.59560414353715518 0.4547251816449045
  outer loop
   vertex -84.923820495605469 -135 91.5
   vertex -85.3125 -135 92.066001892089844
   vertex -85.110641479492188 -135.9375 93
  endloop
 endfacet
 facet normal 0.96674911942795638 0.14470553835968752 0.21084697591690454
  outer loop
   vertex -84.923820495605469 -135 91.5
   vertex -85.110641479492188 -135.9375 93
   vertex -84.783493041992188 -135.9375 91.5
  endloop
 endfacet
 facet normal 0.96431147709899878 -0.16084414090674706 0.21031532866416966
  outer loop
   vertex -84.783493041992188 -135.9375 91.5
   vertex -85.110641479492188 -135.9375 93
   vertex -85.267013549804688 -136.875 93
  endloop
 endfacet
 facet normal 0.69331712619323016 -0.69002842183574731 -0.20777906435930624
  outer loop
   vertex -84.783493041992188 -135.9375 91.5
   vertex -85.267013549804688 -136.875 93
   vertex -85.3125 -136.875 92.848220825195312
  endloop
 endfacet
 facet normal 0.79580284716070626 -0.55661386376960709 -0.23849284079481908
  outer loop
   vertex -85.3125 -136.875 92.848220825195312
   vertex -85.267013549804688 -136.875 93
   vertex -85.3125 -136.94003295898438 93
  endloop
 endfacet
 facet normal -0.99584068371028545 -0.078902220838243317 0.045560643259552093
  outer loop
   vertex -85.538291931152344 -135.9375 91.5
   vertex -85.3953857421875 -136.875 93
   vertex -85.46966552734375 -135.9375 93
  endloop
 endfacet
 facet normal -0.99234452922352068 -0.078625214327150042 0.095238705325927389
  outer loop
   vertex -85.46966552734375 -135.9375 93
   vertex -85.3953857421875 -136.875 93
   vertex -85.3125 -136.875 93.863632202148438
  endloop
 endfacet
 facet normal -0.91358405058621051 0.18189016815890596 0.36370338084985865
  outer loop
   vertex -85.46966552734375 -135.9375 93
   vertex -85.3125 -136.875 93.863632202148438
   vertex -85.3125 -135.9375 93.394783020019531
  endloop
 endfacet
 facet normal 0.84013569420973222 0.27614818898284466 0.46681280299090611
  outer loop
   vertex -93.246612548828125 -129.375 93
   vertex -93.75 -128.4375 93.351371765136719
   vertex -93.75 -129.375 93.905960083007812
  endloop
 endfacet
 facet normal -0.018074984267026199 0.50906186801797815 0.86054012659131318
  outer loop
   vertex -93.75 -129.375 93.905960083007812
   vertex -93.75 -128.4375 93.351371765136719
   vertex -94.6875 -129.375 93.886268615722656
  endloop
 endfacet
 facet normal -0.0054719857493628699 -0.96545341557840125 0.26051825218198738
  outer loop
   vertex -93.75 -129.375 93.905960083007812
   vertex -94.6875 -129.375 93.886268615722656
   vertex -94.6875 -129.61415100097656 93
  endloop
 endfacet
 facet normal -0.58428382026125725 -0.78352486392783605 0.21142659479776135
  outer loop
   vertex -94.6875 -129.61415100097656 93
   vertex -94.6875 -129.375 93.886268615722656
   vertex -95.008201599121094 -129.375 93
  endloop
 endfacet
 facet normal 0.50906186801797815 -0.018074984267026199 0.86054012659131318
  outer loop
   vertex -93.75 -128.4375 93.351371765136719
   vertex -94.6875 -128.4375 93.905960083007812
   vertex -94.6875 -129.375 93.886268615722656
  endloop
 endfacet
 facet normal -0.79454426294358693 -0.012751088096124 0.60707233833851881
  outer loop
   vertex -94.6875 -129.375 93.886268615722656
   vertex -94.6875 -128.4375 93.905960083007812
   vertex -95.37969970703125 -128.4375 93
  endloop
 endfacet
 facet normal -0.88114604875532831 -0.34916702923212239 0.31884796762734235
  outer loop
   vertex -94.6875 -129.375 93.886268615722656
   vertex -95.37969970703125 -128.4375 93
   vertex -95.008201599121094 -129.375 93
  endloop
 endfacet
 facet normal 0.51707830152906809 -0.80627750472391901 0.28730926797439837
  outer loop
   vertex -93.246612548828125 -129.375 93
   vertex -93.75 -129.375 93.905960083007812
   vertex -93.75 -129.69783020019531 93
  endloop
 endfacet
 facet normal -0.083783547328327171 -0.93866906415981421 0.3344857324108465
  outer loop
   vertex -93.75 -129.69783020019531 93
   vertex -93.75 -129.375 93.905960083007812
   vertex -94.6875 -129.61415100097656 93
  endloop
 endfacet
 facet normal 0.56775140243617539 0.56775140243617539 -0.59608446554453332
  outer loop
   vertex -86.25 -137.8125 94.090736389160156
   vertex -86.25 -137.3828125 94.5
   vertex -85.8203125 -137.8125 94.5
  endloop
 endfacet
 facet normal 0.70154963503335976 0.70154963503335976 0.12512481436197812
  outer loop
   vertex -85.8203125 -137.8125 94.5
   vertex -86.25 -137.3828125 94.5
   vertex -86.087844848632812 -137.8125 96
  endloop
 endfacet
 facet normal 0.98444561369638539 0.0061848308412565884 0.17558069808897628
  outer loop
   vertex -85.8203125 -137.8125 94.5
   vertex -86.087844848632812 -137.8125 96
   vertex -86.081954956054688 -138.75 96
  endloop
 endfacet
 facet normal 0.99606754075364989 0.0062578462033025528 0.088375865584852442
  outer loop
   vertex -86.081954956054688 -138.75 96
   vertex -86.087844848632812 -137.8125 96
   vertex -86.215042114257812 -138.75 97.5
  endloop
 endfacet
 facet normal 0.84315839497445333 -0.53243546937333863 0.07480903646817201
  outer loop
   vertex -86.081954956054688 -138.75 96
   vertex -86.215042114257812 -138.75 97.5
   vertex -86.25 -138.80535888671875 97.5
  endloop
 endfacet
 facet normal 0.79643630994067116 -0.50293152868634994 0.33578130034487996
  outer loop
   vertex -86.25 -138.80535888671875 97.5
   vertex -86.215042114257812 -138.75 97.5
   vertex -86.25 -138.75 97.582916259765625
  endloop
 endfacet
 facet normal 0.72740234762983358 -0.57070358548041911 0.3810291880977108
  outer loop
   vertex -86.25 -138.80535888671875 97.5
   vertex -86.25 -138.75 97.582916259765625
   vertex -86.942108154296875 -139.6875 97.5
  endloop
 endfacet
 facet normal 0.74840560839878101 -0.58082904781074085 0.32019784905042492
  outer loop
   vertex -86.942108154296875 -139.6875 97.5
   vertex -86.25 -138.75 97.582916259765625
   vertex -86.856285095214844 -138.75 99
  endloop
 endfacet
 facet normal 0.98257593921646569 -0.17760411935170017 0.054784126005507895
  outer loop
   vertex -86.942108154296875 -139.6875 97.5
   vertex -86.856285095214844 -138.75 99
   vertex -87.025741577148438 -139.6875 99
  endloop
 endfacet
 facet normal 0.86966484798057553 -0.15719503530677542 0.46794526716468021
  outer loop
   vertex -87.025741577148438 -139.6875 99
   vertex -86.856285095214844 -138.75 99
   vertex -87.1875 -138.75 99.615554809570312
  endloop
 endfacet
 facet normal 0.95154515178898602 -0.036313380398160892 0.30535743401943549
  outer loop
   vertex -87.025741577148438 -139.6875 99
   vertex -87.1875 -138.75 99.615554809570312
   vertex -87.1875 -139.6875 99.504066467285156
  endloop
 endfacet
 facet normal 0.86525087447647453 -0.059202543060000001 0.49783127976546909
  outer loop
   vertex -87.1875 -139.6875 99.504066467285156
   vertex -87.1875 -138.75 99.615554809570312
   vertex -87.760520935058594 -139.6875 100.5
  endloop
 endfacet
 facet normal 0.45253603325435299 -0.8528879563145102 0.26037141275507464
  outer loop
   vertex -87.1875 -139.6875 99.504066467285156
   vertex -87.760520935058594 -139.6875 100.5
   vertex -88.125 -139.88088989257812 100.5
  endloop
 endfacet
 facet normal 0.41961170842748469 -0.79083596917730103 0.44553842034774804
  outer loop
   vertex -88.125 -139.88088989257812 100.5
   vertex -87.760520935058594 -139.6875 100.5
   vertex -88.125 -139.6875 100.84326934814453
  endloop
 endfacet
 facet normal 0.15630898957821168 -0.86053981359187504 0.48480793000970929
  outer loop
   vertex -88.125 -139.88088989257812 100.5
   vertex -88.125 -139.6875 100.84326934814453
   vertex -89.0625 -140.05117797851562 100.5
  endloop
 endfacet
 facet normal 0.2200363108409441 -0.90674601605891525 0.35971611622610539
  outer loop
   vertex -89.0625 -140.05117797851562 100.5
   vertex -88.125 -139.6875 100.84326934814453
   vertex -89.0625 -139.6875 101.41673278808594
  endloop
 endfacet
 facet normal 0 -0.9295271632412434 0.36875364784187148
  outer loop
   vertex -89.0625 -140.05117797851562 100.5
   vertex -89.0625 -139.6875 101.41673278808594
   vertex -90 -140.05117797851562 100.5
  endloop
 endfacet
 facet normal 0 -0.9295271632412434 0.36875364784187148
  outer loop
   vertex -90 -140.05117797851562 100.5
   vertex -89.0625 -139.6875 101.41673278808594
   vertex -90 -139.6875 101.41673278808594
  endloop
 endfacet
 facet normal -0.38849962679503253 -0.85651176426834685 0.33978763610532431
  outer loop
   vertex -90 -140.05117797851562 100.5
   vertex -90 -139.6875 101.41673278808594
   vertex -90.801788330078125 -139.6875 100.5
  endloop
 endfacet
 facet normal -0.7487755400311491 -0.10224369129380412 0.65489038643247655
  outer loop
   vertex -90.801788330078125 -139.6875 100.5
   vertex -90 -139.6875 101.41673278808594
   vertex -90.929801940917969 -138.75 100.5
  endloop
 endfacet
 facet normal -0.98968121759312178 -0.13513884399409987 0.047629616703624054
  outer loop
   vertex -90.801788330078125 -139.6875 100.5
   vertex -90.929801940917969 -138.75 100.5
   vertex -90.873977661132812 -139.6875 99
  endloop
 endfacet
 facet normal -0.96524372259775892 -0.23625997278777461 0.11173979257158377
  outer loop
   vertex -90.873977661132812 -139.6875 99
   vertex -90.929801940917969 -138.75 100.5
   vertex -90.9375 -139.427978515625 99
  endloop
 endfacet
 facet normal -0.86902456434623565 -0.21270868187755052 -0.44671167794982725
  outer loop
   vertex -90.873977661132812 -139.6875 99
   vertex -90.9375 -139.427978515625 99
   vertex -90.332389831542969 -138.75 97.5
  endloop
 endfacet
 facet normal -0.89234654682360115 -0.14740320581629437 -0.42660278396545137
  outer loop
   vertex -90.332389831542969 -138.75 97.5
   vertex -90.9375 -139.427978515625 99
   vertex -90.9375 -138.75 98.765739440917969
  endloop
 endfacet
 facet normal -0.83570917690118729 0.37678767822003933 -0.39952624092128453
  outer loop
   vertex -90.332389831542969 -138.75 97.5
   vertex -90.9375 -138.75 98.765739440917969
   vertex -90.9375 -138.50160217285156 99
  endloop
 endfacet
 facet normal -0.87102798026937867 0.33703576679874786 -0.35737536217012322
  outer loop
   vertex -90.9375 -138.50160217285156 99
   vertex -90.9375 -138.75 98.765739440917969
   vertex -91.033615112304688 -138.75 99
  endloop
 endfacet
 facet normal -0.93077866457638836 0.36015571031185395 0.062760990265920941
  outer loop
   vertex -90.9375 -138.50160217285156 99
   vertex -91.033615112304688 -138.75 99
   vertex -90.9375 -138.75 100.42543792724609
  endloop
 endfacet
 facet normal -0.98790090995667401 -0.14005194075929711 0.066612656427511865
  outer loop
   vertex -90.9375 -138.75 100.42543792724609
   vertex -91.033615112304688 -138.75 99
   vertex -90.9375 -139.427978515625 99
  endloop
 endfacet
 facet normal -0.97230560759363627 -0.21105635633520572 0.1003843607962733
  outer loop
   vertex -90.9375 -138.75 100.42543792724609
   vertex -90.9375 -139.427978515625 99
   vertex -90.929801940917969 -138.75 100.5
  endloop
 endfacet
 facet normal -0.88346858581730392 0.32311232121208855 -0.33923691685149648
  outer loop
   vertex -86.25 -137.3828125 94.5
   vertex -86.25 -137.8125 94.090736389160156
   vertex -86.407150268554688 -137.8125 94.5
  endloop
 endfacet
 facet normal -0.85868128639037267 -0.39236694478612399 -0.32971901528752862
  outer loop
   vertex -86.407150268554688 -137.8125 94.5
   vertex -86.25 -137.8125 94.090736389160156
   vertex -86.25 -138.15641784667969 94.5
  endloop
 endfacet
 facet normal -0.87722312304622907 -0.40083947576436901 -0.26421072472927049
  outer loop
   vertex -86.407150268554688 -137.8125 94.5
   vertex -86.25 -138.15641784667969 94.5
   vertex -86.25 -138.75 95.400535583496094
  endloop
 endfacet
 facet normal 0.55562652794561507 -0.69419419792131498 -0.45757357552144834
  outer loop
   vertex -86.25 -138.75 95.400535583496094
   vertex -86.25 -138.15641784667969 94.5
   vertex -85.8203125 -137.8125 94.5
  endloop
 endfacet
 facet normal 0.78860222794869472 -0.57379153175883824 -0.22106515816881053
  outer loop
   vertex -86.25 -138.75 95.400535583496094
   vertex -85.8203125 -137.8125 94.5
   vertex -86.081954956054688 -138.75 96
  endloop
 endfacet
 facet normal 0.52247476554037431 -0.65277471926957464 -0.54854834359066207
  outer loop
   vertex -86.25 -137.8125 94.090736389160156
   vertex -85.8203125 -137.8125 94.5
   vertex -86.25 -138.15641784667969 94.5
  endloop
 endfacet
 facet normal 0.66021276392010408 0.73791344574873219 0.14001018870142978
  outer loop
   vertex -86.087844848632812 -137.8125 96
   vertex -86.25 -137.3828125 94.5
   vertex -86.25 -137.66741943359375 96
  endloop
 endfacet
 facet normal -0.93717174155434235 0.34275325874531859 0.065033302633846865
  outer loop
   vertex -86.25 -137.66741943359375 96
   vertex -86.25 -137.3828125 94.5
   vertex -86.407150268554688 -137.8125 94.5
  endloop
 endfacet
 facet normal -0.41975201306389137 0.90658576612048181 -0.04370922324349491
  outer loop
   vertex -86.25 -137.66741943359375 96
   vertex -86.407150268554688 -137.8125 94.5
   vertex -86.563346862792969 -137.8125 96
  endloop
 endfacet
 facet normal -0.63620054650645763 0.76867420630847416 -0.066248239077894622
  outer loop
   vertex -86.563346862792969 -137.8125 96
   vertex -86.407150268554688 -137.8125 94.5
   vertex -87.1875 -138.32908630371094 96
  endloop
 endfacet
 facet normal -0.5994311738759297 0.72424848476762571 0.34080258229292087
  outer loop
   vertex -86.563346862792969 -137.8125 96
   vertex -87.1875 -138.32908630371094 96
   vertex -86.25 -137.8125 96.551139831542969
  endloop
 endfacet
 facet normal -0.62453463232931072 0.59997583477439531 0.4999854904975346
  outer loop
   vertex -86.25 -137.8125 96.551139831542969
   vertex -87.1875 -138.32908630371094 96
   vertex -86.25 -138.60322570800781 97.5
  endloop
 endfacet
 facet normal 0.95514784955384413 0.22749181030542226 0.18957864261732887
  outer loop
   vertex -86.25 -137.8125 96.551139831542969
   vertex -86.25 -138.60322570800781 97.5
   vertex -86.215042114257812 -138.75 97.5
  endloop
 endfacet
 facet normal 0.90003291685169573 0.21436484172026563 0.37945811787030459
  outer loop
   vertex -86.215042114257812 -138.75 97.5
   vertex -86.25 -138.60322570800781 97.5
   vertex -86.25 -138.75 97.582916259765625
  endloop
 endfacet
 facet normal -0.6040728947823556 -0.60241190458174798 -0.52172390687743653
  outer loop
   vertex -86.407150268554688 -137.8125 94.5
   vertex -86.25 -138.75 95.400535583496094
   vertex -87.1875 -138.32908630371094 96
  endloop
 endfacet
 facet normal -0.22149501554521012 0.60070194851423042 -0.7681777965678479
  outer loop
   vertex -87.1875 -138.32908630371094 96
   vertex -86.25 -138.75 95.400535583496094
   vertex -87.1875 -138.75 95.670852661132812
  endloop
 endfacet
 facet normal -0.67798107316835987 0.45281074139993754 -0.57905448525878622
  outer loop
   vertex -87.1875 -138.32908630371094 96
   vertex -87.1875 -138.75 95.670852661132812
   vertex -87.468620300292969 -138.75 96
  endloop
 endfacet
 facet normal -0.66927440317289033 -0.47468343728271273 -0.57161823591190697
  outer loop
   vertex -87.468620300292969 -138.75 96
   vertex -87.1875 -138.75 95.670852661132812
   vertex -87.1875 -139.1463623046875 96
  endloop
 endfacet
 facet normal -0.58198097776361513 -0.41277050137927179 -0.7006558746720184
  outer loop
   vertex -87.468620300292969 -138.75 96
   vertex -87.1875 -139.1463623046875 96
   vertex -88.125 -138.75 96.545204162597656
  endloop
 endfacet
 facet normal -0.55791752462028998 -0.69431170593961011 -0.45459794403054271
  outer loop
   vertex -88.125 -138.75 96.545204162597656
   vertex -87.1875 -139.1463623046875 96
   vertex -87.1875 -139.6875 96.826484680175781
  endloop
 endfacet
 facet normal -0.13647085160083663 -0.40739903838774338 -0.90299597462230385
  outer loop
   vertex -88.125 -138.75 96.545204162597656
   vertex -87.1875 -139.6875 96.826484680175781
   vertex -88.125 -139.6875 96.968170166015625
  endloop
 endfacet
 facet normal -0.039100690429135949 -0.96516060526743885 -0.25872020030866544
  outer loop
   vertex -88.125 -139.6875 96.968170166015625
   vertex -87.1875 -139.6875 96.826484680175781
   vertex -87.1875 -139.8680419921875 97.5
  endloop
 endfacet
 facet normal 0.084005505936316879 -0.8891125382820515 -0.44991329080394049
  outer loop
   vertex -88.125 -139.6875 96.968170166015625
   vertex -87.1875 -139.8680419921875 97.5
   vertex -88.125 -139.95661926269531 97.5
  endloop
 endfacet
 facet normal 0.093346960316856256 -0.98798229834068019 -0.12319627902282775
  outer loop
   vertex -88.125 -139.95661926269531 97.5
   vertex -87.1875 -139.8680419921875 97.5
   vertex -88.125 -140.14366149902344 99
  endloop
 endfacet
 facet normal 0.013323360938963061 -0.99222702556350362 -0.12372557453773425
  outer loop
   vertex -88.125 -139.95661926269531 97.5
   vertex -88.125 -140.14366149902344 99
   vertex -89.0625 -140.15625 99
  endloop
 endfacet
 facet normal 0.013393710497637285 -0.99746614906040576 0.069870523096007831
  outer loop
   vertex -89.0625 -140.15625 99
   vertex -88.125 -140.14366149902344 99
   vertex -89.0625 -140.05117797851562 100.5
  endloop
 endfacet
 facet normal 0 -0.997555629564427 0.069876791027635138
  outer loop
   vertex -89.0625 -140.15625 99
   vertex -89.0625 -140.05117797851562 100.5
   vertex -90 -140.05117797851562 100.5
  endloop
 endfacet
 facet normal 0.7439170947210253 -0.63490072567906475 -0.20853878467571943
  outer loop
   vertex -86.25 -138.75 95.400535583496094
   vertex -86.081954956054688 -138.75 96
   vertex -86.25 -138.9468994140625 96
  endloop
 endfacet
 facet normal 0.75921737990807037 -0.64795885035086631 0.06114162491714107
  outer loop
   vertex -86.25 -138.9468994140625 96
   vertex -86.081954956054688 -138.75 96
   vertex -86.25 -138.80535888671875 97.5
  endloop
 endfacet
 facet normal 0.20722174493863874 -0.9739675649502727 0.091903921839179781
  outer loop
   vertex -86.25 -138.9468994140625 96
   vertex -86.25 -138.80535888671875 97.5
   vertex -87.1875 -139.1463623046875 96
  endloop
 endfacet
 facet normal 0.76309926675107786 -0.54069479806941234 -0.35401785890636189
  outer loop
   vertex -87.1875 -139.1463623046875 96
   vertex -86.25 -138.80535888671875 97.5
   vertex -87.1875 -139.6875 96.826484680175781
  endloop
 endfacet
 facet normal -0.089615861370495487 -0.94624078132431255 -0.31080119232328995
  outer loop
   vertex -86.25 -138.75 95.400535583496094
   vertex -86.25 -138.9468994140625 96
   vertex -87.1875 -138.75 95.670852661132812
  endloop
 endfacet
 facet normal 0.13468581655356562 -0.63303982321382135 -0.76231247729832752
  outer loop
   vertex -87.1875 -138.75 95.670852661132812
   vertex -86.25 -138.9468994140625 96
   vertex -87.1875 -139.1463623046875 96
  endloop
 endfacet
 facet normal 0.59977997302462771 0.49061695136987299 -0.63210678764518002
  outer loop
   vertex -89.550811767578125 -135 97.5
   vertex -90 -135 97.073783874511719
   vertex -90 -134.45086669921875 97.5
  endloop
 endfacet
 facet normal 0.21968767611149051 0.5981657797602471 -0.7706718010207384
  outer loop
   vertex -90 -134.45086669921875 97.5
   vertex -90 -135 97.073783874511719
   vertex -90.9375 -134.10655212402344 97.5
  endloop
 endfacet
 facet normal 0.33696110950176783 0.91747797774378981 0.21140333734003278
  outer loop
   vertex -90 -134.45086669921875 97.5
   vertex -90.9375 -134.10655212402344 97.5
   vertex -90 -134.79649353027344 99
  endloop
 endfacet
 facet normal 0.73332128002449681 0.66228044754182103 -0.15370266447605496
  outer loop
   vertex -90 -134.79649353027344 99
   vertex -90.9375 -134.10655212402344 97.5
   vertex -90.662887573242188 -134.0625 99
  endloop
 endfacet
 facet normal 0.5886882073087808 0.5316587695178131 0.60892129817438523
  outer loop
   vertex -90 -134.79649353027344 99
   vertex -90.662887573242188 -134.0625 99
   vertex -90.9375 -134.0625 99.265487670898438
  endloop
 endfacet
 facet normal 0.57392472991434518 0.56408297549388176 0.59365040314204665
  outer loop
   vertex -90.9375 -134.0625 99.265487670898438
   vertex -90.662887573242188 -134.0625 99
   vertex -90.9375 -133.78309631347656 99
  endloop
 endfacet
 facet normal -0.36427031999918608 0.64149652525005485 0.67512172388377223
  outer loop
   vertex -90.9375 -134.0625 99.265487670898438
   vertex -90.9375 -133.78309631347656 99
   vertex -91.429542541503906 -134.0625 99
  endloop
 endfacet
 facet normal -0.48701741855840558 0.85765972298310444 -0.16502676629338434
  outer loop
   vertex -91.429542541503906 -134.0625 99
   vertex -90.9375 -133.78309631347656 99
   vertex -90.9375 -134.0625 97.54791259765625
  endloop
 endfacet
 facet normal -0.93575347644023921 0.15435203170761158 -0.31708182167658122
  outer loop
   vertex -91.429542541503906 -134.0625 99
   vertex -90.9375 -134.0625 97.54791259765625
   vertex -91.075904846191406 -135 97.5
  endloop
 endfacet
 facet normal -0.97856751302573142 0.15159080878690925 -0.13937664489420604
  outer loop
   vertex -91.075904846191406 -135 97.5
   vertex -90.9375 -134.0625 97.54791259765625
   vertex -90.9375 -134.10655212402344 97.5
  endloop
 endfacet
 facet normal -0.76596485366927169 0.11865633195920156 -0.63183741407849481
  outer loop
   vertex -91.075904846191406 -135 97.5
   vertex -90.9375 -134.10655212402344 97.5
   vertex -90.9375 -135 97.33221435546875
  endloop
 endfacet
 facet normal -0.26149630510259159 0.17814706724283844 -0.94862179231265176
  outer loop
   vertex -90.9375 -135 97.33221435546875
   vertex -90.9375 -134.10655212402344 97.5
   vertex -90 -135 97.073783874511719
  endloop
 endfacet
 facet normal -0.26574453697098677 0.0045032138937013671 -0.96403296734847377
  outer loop
   vertex -90.9375 -135 97.33221435546875
   vertex -90 -135 97.073783874511719
   vertex -90 -135.9375 97.069404602050781
  endloop
 endfacet
 facet normal 0.36248455083229364 0.0043534854932257136 -0.93197961220832004
  outer loop
   vertex -90 -135.9375 97.069404602050781
   vertex -90 -135 97.073783874511719
   vertex -89.0625 -135.9375 97.434036254882812
  endloop
 endfacet
 facet normal 0.36207697300377661 -0.047607216503582787 -0.93093169381926366
  outer loop
   vertex -90 -135.9375 97.069404602050781
   vertex -89.0625 -135.9375 97.434036254882812
   vertex -90 -136.875 97.117347717285156
  endloop
 endfacet
 facet normal -0.15459134048293804 0.45145162694233271 -0.87880199475126874
  outer loop
   vertex -90 -136.875 97.117347717285156
   vertex -89.0625 -135.9375 97.434036254882812
   vertex -89.0625 -136.875 96.952430725097656
  endloop
 endfacet
 facet normal -0.17324708207995726 -0.0069487981200649033 -0.98485387888532328
  outer loop
   vertex -90 -136.875 97.117347717285156
   vertex -89.0625 -136.875 96.952430725097656
   vertex -90 -137.8125 97.12396240234375
  endloop
 endfacet
 facet normal -0.3473969446209072 0.17897954109512107 -0.92047905285098053
  outer loop
   vertex -90 -137.8125 97.12396240234375
   vertex -89.0625 -136.875 96.952430725097656
   vertex -89.0625 -137.8125 96.7701416015625
  endloop
 endfacet
 facet normal -0.35280010409146206 0.041102703174188578 -0.93479551472224554
  outer loop
   vertex -90 -137.8125 97.12396240234375
   vertex -89.0625 -137.8125 96.7701416015625
   vertex -90 -138.75 97.082740783691406
  endloop
 endfacet
 facet normal -0.33441227991030559 0.020242781257038194 -0.94220945487305052
  outer loop
   vertex -90 -138.75 97.082740783691406
   vertex -89.0625 -137.8125 96.7701416015625
   vertex -89.0625 -138.75 96.75
  endloop
 endfacet
 facet normal -0.30461200646310671 -0.41306625717640594 -0.858246929910498
  outer loop
   vertex -90 -138.75 97.082740783691406
   vertex -89.0625 -138.75 96.75
   vertex -89.0625 -139.6875 97.201210021972656
  endloop
 endfacet
 facet normal -0.19313160727158912 -0.42551117183806025 -0.88410430658022099
  outer loop
   vertex -89.0625 -139.6875 97.201210021972656
   vertex -89.0625 -138.75 96.75
   vertex -88.125 -138.75 96.545204162597656
  endloop
 endfacet
 facet normal -0.22098130634438085 -0.40107980495747686 -0.88898945567515208
  outer loop
   vertex -89.0625 -139.6875 97.201210021972656
   vertex -88.125 -138.75 96.545204162597656
   vertex -88.125 -139.6875 96.968170166015625
  endloop
 endfacet
 facet normal 0.78817193492551418 0.35136215500177936 -0.50530153079945928
  outer loop
   vertex -89.020210266113281 -135.9375 97.5
   vertex -89.0625 -135.9375 97.434036254882812
   vertex -89.0625 -135.84263610839844 97.5
  endloop
 endfacet
 facet normal 0.70179687213802056 0.4066947377390025 -0.5848765173544711
  outer loop
   vertex -89.0625 -135.84263610839844 97.5
   vertex -89.0625 -135.9375 97.434036254882812
   vertex -89.550811767578125 -135 97.5
  endloop
 endfacet
 facet normal 0.8303184552569457 0.48117362702375416 0.28114623155312701
  outer loop
   vertex -89.0625 -135.84263610839844 97.5
   vertex -89.550811767578125 -135 97.5
   vertex -89.515426635742188 -135.9375 99
  endloop
 endfacet
 facet normal 0.92085943833705197 0.34002405025770721 0.19079187632578437
  outer loop
   vertex -89.515426635742188 -135.9375 99
   vertex -89.550811767578125 -135 97.5
   vertex -89.861595153808594 -135 99
  endloop
 endfacet
 facet normal 0.74190430279001396 0.27394550724683681 0.6119900853452912
  outer loop
   vertex -89.515426635742188 -135.9375 99
   vertex -89.861595153808594 -135 99
   vertex -90 -135 99.16778564453125
  endloop
 endfacet
 facet normal 0.68311021399888194 0.46458357922147853 0.56349137832637852
  outer loop
   vertex -90 -135 99.16778564453125
   vertex -89.861595153808594 -135 99
   vertex -90 -134.79649353027344 99
  endloop
 endfacet
 facet normal 0.5824567891949517 0.51709471656980577 0.62718190568311194
  outer loop
   vertex -90 -135 99.16778564453125
   vertex -90 -134.79649353027344 99
   vertex -90.9375 -134.0625 99.265487670898438
  endloop
 endfacet
 facet normal 0.63696221204232828 0.37900495831800018 -0.67129306714766168
  outer loop
   vertex -89.550811767578125 -135 97.5
   vertex -89.0625 -135.9375 97.434036254882812
   vertex -90 -135 97.073783874511719
  endloop
 endfacet
 facet normal -0.63098041791419279 -0.4214155284165913 -0.65136216087380738
  outer loop
   vertex -90.9375 -135 97.33221435546875
   vertex -90.484573364257812 -135.9375 97.5
   vertex -90.9375 -135.25933837890625 97.5
  endloop
 endfacet
 facet normal -0.80041543436832185 -0.53457680088099402 -0.27122458661561788
  outer loop
   vertex -90.9375 -135.25933837890625 97.5
   vertex -90.484573364257812 -135.9375 97.5
   vertex -90.9375 -135.9375 98.836639404296875
  endloop
 endfacet
 facet normal -0.86797400098111221 -0.44286913329837413 -0.22469549259472749
  outer loop
   vertex -90.9375 -135.25933837890625 97.5
   vertex -90.9375 -135.9375 98.836639404296875
   vertex -90.979789733886719 -135.9375 99
  endloop
 endfacet
 facet normal -0.91474015095279471 -0.32737633372490582 -0.23680201086920144
  outer loop
   vertex -90.979789733886719 -135.9375 99
   vertex -90.9375 -135.9375 98.836639404296875
   vertex -90.9375 -136.0556640625 99
  endloop
 endfacet
 facet normal -0.80605807066258972 -0.28848010625534187 0.51676843461516708
  outer loop
   vertex -90.979789733886719 -135.9375 99
   vertex -90.9375 -136.0556640625 99
   vertex -90.9375 -135.9375 99.065963745117188
  endloop
 endfacet
 facet normal -0.74421019583916104 -0.32557809936119309 0.58322387264702269
  outer loop
   vertex -90.9375 -135.9375 99.065963745117188
   vertex -90.9375 -136.0556640625 99
   vertex -90 -136.875 99.7388916015625
  endloop
 endfacet
 facet normal -0.34657593106756496 0.29303008387230833 0.89107715375855001
  outer loop
   vertex -90.9375 -135.9375 99.065963745117188
   vertex -90 -136.875 99.7388916015625
   vertex -90 -135.9375 99.430595397949219
  endloop
 endfacet
 facet normal 0.20713750780114745 0.30561631198833678 0.92935069952552207
  outer loop
   vertex -90 -135.9375 99.430595397949219
   vertex -90 -136.875 99.7388916015625
   vertex -89.0625 -136.875 99.529937744140625
  endloop
 endfacet
 facet normal 0.5478741485390638 0.60868524884438568 0.57387819718285538
  outer loop
   vertex -90 -135.9375 99.430595397949219
   vertex -89.0625 -136.875 99.529937744140625
   vertex -89.0625 -136.3753662109375 99
  endloop
 endfacet
 facet normal 0.65376194898862217 0.55057841147417064 0.51909414066542603
  outer loop
   vertex -89.0625 -136.3753662109375 99
   vertex -89.0625 -136.875 99.529937744140625
   vertex -88.6417236328125 -136.875 99
  endloop
 endfacet
 facet normal 0.74840538443420368 0.63028423165030545 0.20647316504300514
  outer loop
   vertex -89.0625 -136.3753662109375 99
   vertex -88.6417236328125 -136.875 99
   vertex -89.0625 -135.9375 97.663360595703125
  endloop
 endfacet
 facet normal 0.75897021161379719 0.62077442735152644 0.1964772969818456
  outer loop
   vertex -89.0625 -135.9375 97.663360595703125
   vertex -88.6417236328125 -136.875 99
   vertex -89.020210266113281 -135.9375 97.5
  endloop
 endfacet
 facet normal 0.88884583617625079 0.39624195511701449 0.23009865822552578
  outer loop
   vertex -89.0625 -135.9375 97.663360595703125
   vertex -89.020210266113281 -135.9375 97.5
   vertex -89.0625 -135.84263610839844 97.5
  endloop
 endfacet
 facet normal -0.60467333951078983 -0.41391603478318945 -0.68047312116955128
  outer loop
   vertex -90.9375 -135 97.33221435546875
   vertex -90 -135.9375 97.069404602050781
   vertex -90.484573364257812 -135.9375 97.5
  endloop
 endfacet
 facet normal -0.65908078898358446 -0.12446800772422738 -0.74170090241682851
  outer loop
   vertex -90.484573364257812 -135.9375 97.5
   vertex -90 -135.9375 97.069404602050781
   vertex -90.307525634765625 -136.875 97.5
  endloop
 endfacet
 facet normal -0.96293005551029909 -0.18185021865374348 -0.19923906788207482
  outer loop
   vertex -90.484573364257812 -135.9375 97.5
   vertex -90.307525634765625 -136.875 97.5
   vertex -90.617889404296875 -136.875 99
  endloop
 endfacet
 facet normal -0.97863751602935589 -0.035591886874472588 -0.20248908565304666
  outer loop
   vertex -90.617889404296875 -136.875 99
   vertex -90.307525634765625 -136.875 97.5
   vertex -90.273429870605469 -137.8125 97.5
  endloop
 endfacet
 facet normal -0.96485294597671989 0.056220272568304967 -0.25670620092313762
  outer loop
   vertex -90.617889404296875 -136.875 99
   vertex -90.273429870605469 -137.8125 97.5
   vertex -90.672515869140625 -137.8125 99
  endloop
 endfacet
 facet normal -0.96460152246010433 0.060664392623467497 -0.25663930785301514
  outer loop
   vertex -90.672515869140625 -137.8125 99
   vertex -90.273429870605469 -137.8125 97.5
   vertex -90.332389831542969 -138.75 97.5
  endloop
 endfacet
 facet normal -0.85559633648684374 0.32900701887536876 -0.39963644793866626
  outer loop
   vertex -90.672515869140625 -137.8125 99
   vertex -90.332389831542969 -138.75 97.5
   vertex -90.9375 -138.50160217285156 99
  endloop
 endfacet
 facet normal -0.71332846175910092 -0.38069226949787743 -0.58841813499326345
  outer loop
   vertex -90.9375 -135 97.33221435546875
   vertex -90.9375 -135.25933837890625 97.5
   vertex -91.075904846191406 -135 97.5
  endloop
 endfacet
 facet normal -0.85830227209412058 -0.45806252994997176 -0.23129186836960247
  outer loop
   vertex -91.075904846191406 -135 97.5
   vertex -90.9375 -135.25933837890625 97.5
   vertex -90.979789733886719 -135.9375 99
  endloop
 endfacet
 facet normal -0.90119168748493395 -0.39113978083198225 -0.18671693618621207
  outer loop
   vertex -91.075904846191406 -135 97.5
   vertex -90.979789733886719 -135.9375 99
   vertex -91.386688232421875 -135 99
  endloop
 endfacet
 facet normal -0.7907190991942552 -0.34319190850689463 0.50693453236569008
  outer loop
   vertex -91.386688232421875 -135 99
   vertex -90.979789733886719 -135.9375 99
   vertex -90.9375 -135.9375 99.065963745117188
  endloop
 endfacet
 facet normal -0.66303584447199504 -0.26851656554693815 0.69877201072466089
  outer loop
   vertex -91.386688232421875 -135 99
   vertex -90.9375 -135.9375 99.065963745117188
   vertex -90.9375 -135 99.426216125488281
  endloop
 endfacet
 facet normal 0.24919751611750654 -0.34738161702691056 0.90400586840608166
  outer loop
   vertex -90.9375 -135 99.426216125488281
   vertex -90.9375 -135.9375 99.065963745117188
   vertex -90 -135 99.16778564453125
  endloop
 endfacet
 facet normal 0.26219021360649242 0.16306678564189694 0.95113906202479215
  outer loop
   vertex -90.9375 -135 99.426216125488281
   vertex -90 -135 99.16778564453125
   vertex -90.9375 -134.0625 99.265487670898438
  endloop
 endfacet
 facet normal 0.81124480310823899 0.2671786576361731 -0.52009367842111598
  outer loop
   vertex -89.0625 -135.9375 97.434036254882812
   vertex -89.020210266113281 -135.9375 97.5
   vertex -89.0625 -136.875 96.952430725097656
  endloop
 endfacet
 facet normal 0.58571271949151005 0.38892125353344947 -0.71111241641236311
  outer loop
   vertex -89.0625 -136.875 96.952430725097656
   vertex -89.020210266113281 -135.9375 97.5
   vertex -88.397697448730469 -136.875 97.5
  endloop
 endfacet
 facet normal 0.52236708488182104 0.57001501104352259 -0.63420463244691083
  outer loop
   vertex -89.0625 -136.875 96.952430725097656
   vertex -88.397697448730469 -136.875 97.5
   vertex -88.125 -137.8125 96.881996154785156
  endloop
 endfacet
 facet normal 0.53510785726249288 0.56791852669794174 -0.62540237298013412
  outer loop
   vertex -88.125 -137.8125 96.881996154785156
   vertex -88.397697448730469 -136.875 97.5
   vertex -88.125 -137.13194274902344 97.5
  endloop
 endfacet
 facet normal -0.05391450153497028 0.67128720457975022 -0.7392338706334689
  outer loop
   vertex -88.125 -137.8125 96.881996154785156
   vertex -88.125 -137.13194274902344 97.5
   vertex -87.1875 -137.8125 96.813621520996094
  endloop
 endfacet
 facet normal 0.44708361213717196 0.8608755525168561 -0.24291876592222431
  outer loop
   vertex -87.1875 -137.8125 96.813621520996094
   vertex -88.125 -137.13194274902344 97.5
   vertex -87.1875 -137.61882019042969 97.5
  endloop
 endfacet
 facet normal 0.37341819770076901 0.892799870379271 -0.25192705507084062
  outer loop
   vertex -87.1875 -137.8125 96.813621520996094
   vertex -87.1875 -137.61882019042969 97.5
   vertex -86.724433898925781 -137.8125 97.5
  endloop
 endfacet
 facet normal 0.3663577866252638 0.87591924128339971 0.31392268941341445
  outer loop
   vertex -86.724433898925781 -137.8125 97.5
   vertex -87.1875 -137.61882019042969 97.5
   vertex -87.1875 -137.8125 98.040412902832031
  endloop
 endfacet
 facet normal 0.45590451887788247 0.79971325746517685 0.39065301163713351
  outer loop
   vertex -86.724433898925781 -137.8125 97.5
   vertex -87.1875 -137.8125 98.040412902832031
   vertex -87.1875 -138.28125 99
  endloop
 endfacet
 facet normal 0.70744880219125161 0.63504583884199062 0.31021440141881856
  outer loop
   vertex -87.1875 -138.28125 99
   vertex -87.1875 -137.8125 98.040412902832031
   vertex -87.6082763671875 -137.8125 99
  endloop
 endfacet
 facet normal 0.66257578841233566 0.59476529756701069 0.45524451168553043
  outer loop
   vertex -87.1875 -138.28125 99
   vertex -87.6082763671875 -137.8125 99
   vertex -87.797348022460938 -138.75 100.5
  endloop
 endfacet
 facet normal 0.64172365401497 0.61139994776215512 0.46301280301316633
  outer loop
   vertex -87.797348022460938 -138.75 100.5
   vertex -87.6082763671875 -137.8125 99
   vertex -88.125 -138.40609741210938 100.5
  endloop
 endfacet
 facet normal 0.61114062966908766 0.5822620791944414 0.53616975101159614
  outer loop
   vertex -87.797348022460938 -138.75 100.5
   vertex -88.125 -138.40609741210938 100.5
   vertex -88.125 -138.75 100.87346649169922
  endloop
 endfacet
 facet normal 0.52658518509957786 0.6253698531321632 0.5758650793606952
  outer loop
   vertex -88.125 -138.75 100.87346649169922
   vertex -88.125 -138.40609741210938 100.5
   vertex -89.0625 -137.8125 100.712646484375
  endloop
 endfacet
 facet normal 0.4157651045259485 0.54115373070705797 0.73095281489324615
  outer loop
   vertex -88.125 -138.75 100.87346649169922
   vertex -89.0625 -137.8125 100.712646484375
   vertex -89.0625 -138.75 101.40671539306641
  endloop
 endfacet
 facet normal -0.015754393508044359 0.5949458034899624 0.8036114048437073
  outer loop
   vertex -89.0625 -138.75 101.40671539306641
   vertex -89.0625 -137.8125 100.712646484375
   vertex -90 -138.75 101.38833618164062
  endloop
 endfacet
 facet normal -0.019591744040828113 0.030270017152329697 0.99934973339018629
  outer loop
   vertex -89.0625 -138.75 101.40671539306641
   vertex -90 -138.75 101.38833618164062
   vertex -90 -139.6875 101.41673278808594
  endloop
 endfacet
 facet normal -0.69063475203764124 0.02189559196574728 0.72287220331838409
  outer loop
   vertex -90 -139.6875 101.41673278808594
   vertex -90 -138.75 101.38833618164062
   vertex -90.929801940917969 -138.75 100.5
  endloop
 endfacet
 facet normal -0.77907226996835166 -0.032019145327827653 -0.62611594173829765
  outer loop
   vertex -90 -135.9375 97.069404602050781
   vertex -90 -136.875 97.117347717285156
   vertex -90.307525634765625 -136.875 97.5
  endloop
 endfacet
 facet normal -0.77915892262573738 -0.028337086793737143 -0.62618558176050687
  outer loop
   vertex -90.307525634765625 -136.875 97.5
   vertex -90 -136.875 97.117347717285156
   vertex -90.273429870605469 -137.8125 97.5
  endloop
 endfacet
 facet normal 0.65430849191683482 0.73131429781238999 0.19250920814519037
  outer loop
   vertex -86.087844848632812 -137.8125 96
   vertex -86.25 -137.66741943359375 96
   vertex -86.25 -137.8125 96.551139831542969
  endloop
 endfacet
 facet normal -0.40865603369794712 0.88262052797688195 0.23233865308224624
  outer loop
   vertex -86.25 -137.8125 96.551139831542969
   vertex -86.25 -137.66741943359375 96
   vertex -86.563346862792969 -137.8125 96
  endloop
 endfacet
 facet normal 0.11632302332692403 0.1895713796023597 -0.97495212512191687
  outer loop
   vertex -89.0625 -136.875 96.952430725097656
   vertex -88.125 -137.8125 96.881996154785156
   vertex -89.0625 -137.8125 96.7701416015625
  endloop
 endfacet
 facet normal 0.11844432078310289 0.021328218188895139 -0.9927316102467556
  outer loop
   vertex -89.0625 -137.8125 96.7701416015625
   vertex -88.125 -137.8125 96.881996154785156
   vertex -89.0625 -138.75 96.75
  endloop
 endfacet
 facet normal -0.80878233818296341 -0.004149389856994379 -0.58809345516432443
  outer loop
   vertex -90 -136.875 97.117347717285156
   vertex -90 -137.8125 97.12396240234375
   vertex -90.273429870605469 -137.8125 97.5
  endloop
 endfacet
 facet normal -0.80774504651773604 0.05079959081615449 -0.58733920471816958
  outer loop
   vertex -90.273429870605469 -137.8125 97.5
   vertex -90 -137.8125 97.12396240234375
   vertex -90.332389831542969 -138.75 97.5
  endloop
 endfacet
 facet normal 0.91331362724193421 0.3060252796697423 0.26871313048907197
  outer loop
   vertex -86.25 -137.8125 96.551139831542969
   vertex -86.215042114257812 -138.75 97.5
   vertex -86.087844848632812 -137.8125 96
  endloop
 endfacet
 facet normal 0.62206473044138277 0.66098933171927299 -0.41967675000433197
  outer loop
   vertex -87.1875 -137.8125 96.813621520996094
   vertex -86.724433898925781 -137.8125 97.5
   vertex -87.1875 -138.32908630371094 96
  endloop
 endfacet
 facet normal 0.78432512846805524 0.47059356355325077 -0.40419771250691333
  outer loop
   vertex -87.1875 -138.32908630371094 96
   vertex -86.724433898925781 -137.8125 97.5
   vertex -86.25 -138.60322570800781 97.5
  endloop
 endfacet
 facet normal -0.78425085165550779 0.52378631739986392 -0.33256352082316504
  outer loop
   vertex -87.1875 -138.32908630371094 96
   vertex -87.468620300292969 -138.75 96
   vertex -87.1875 -137.8125 96.813621520996094
  endloop
 endfacet
 facet normal -0.48463711494972678 0.65168922672589336 -0.58346209695456042
  outer loop
   vertex -87.1875 -137.8125 96.813621520996094
   vertex -87.468620300292969 -138.75 96
   vertex -88.125 -138.75 96.545204162597656
  endloop
 endfacet
 facet normal -0.068477077261495128 0.33729659658909178 -0.93890462551802278
  outer loop
   vertex -87.1875 -137.8125 96.813621520996094
   vertex -88.125 -138.75 96.545204162597656
   vertex -88.125 -137.8125 96.881996154785156
  endloop
 endfacet
 facet normal -0.20137372840020176 0.33116424641427955 -0.92183450977226067
  outer loop
   vertex -88.125 -137.8125 96.881996154785156
   vertex -88.125 -138.75 96.545204162597656
   vertex -89.0625 -138.75 96.75
  endloop
 endfacet
 facet normal -0.7818699671819912 0.027386093574498858 -0.62283975169987404
  outer loop
   vertex -90 -137.8125 97.12396240234375
   vertex -90 -138.75 97.082740783691406
   vertex -90.332389831542969 -138.75 97.5
  endloop
 endfacet
 facet normal -0.74643537986958841 -0.29878126269986177 -0.59461246264976608
  outer loop
   vertex -90.332389831542969 -138.75 97.5
   vertex -90 -138.75 97.082740783691406
   vertex -90 -139.58039855957031 97.5
  endloop
 endfacet
 facet normal -0.80744299578035827 -0.32320123662890121 -0.493534972627867
  outer loop
   vertex -90.332389831542969 -138.75 97.5
   vertex -90 -139.58039855957031 97.5
   vertex -90.873977661132812 -139.6875 99
  endloop
 endfacet
 facet normal -0.75757092459027675 -0.44933314408981223 -0.4734828611869677
  outer loop
   vertex -90.873977661132812 -139.6875 99
   vertex -90 -139.58039855957031 97.5
   vertex -90 -139.6875 97.601638793945312
  endloop
 endfacet
 facet normal -0.41381671255521296 -0.87284772031025348 -0.25863600978825368
  outer loop
   vertex -90.873977661132812 -139.6875 99
   vertex -90 -139.6875 97.601638793945312
   vertex -90 -140.10185241699219 99
  endloop
 endfacet
 facet normal -0.21651849010563767 -0.93604977506285947 -0.27736359178368181
  outer loop
   vertex -90 -140.10185241699219 99
   vertex -90 -139.6875 97.601638793945312
   vertex -89.0625 -139.87423706054688 97.5
  endloop
 endfacet
 facet normal -0.056932509403359956 -0.98118748323770988 -0.18447171086832026
  outer loop
   vertex -90 -140.10185241699219 99
   vertex -89.0625 -139.87423706054688 97.5
   vertex -89.0625 -140.15625 99
  endloop
 endfacet
 facet normal -0.086041024140894318 -0.97913697410938083 -0.18408619746388322
  outer loop
   vertex -89.0625 -140.15625 99
   vertex -89.0625 -139.87423706054688 97.5
   vertex -88.125 -139.95661926269531 97.5
  endloop
 endfacet
 facet normal 0.75629439309815727 -0.5933716370674984 -0.27555197566362477
  outer loop
   vertex -86.25 -138.80535888671875 97.5
   vertex -86.942108154296875 -139.6875 97.5
   vertex -87.1875 -139.6875 96.826484680175781
  endloop
 endfacet
 facet normal 0.57926896186574617 -0.78733970966235034 -0.21105366949614132
  outer loop
   vertex -87.1875 -139.6875 96.826484680175781
   vertex -86.942108154296875 -139.6875 97.5
   vertex -87.1875 -139.8680419921875 97.5
  endloop
 endfacet
 facet normal -0.29433932515401684 -0.42909633062237884 -0.85395591262915216
  outer loop
   vertex -90 -138.75 97.082740783691406
   vertex -89.843864440917969 -139.6875 97.5
   vertex -90 -139.58039855957031 97.5
  endloop
 endfacet
 facet normal -0.42697956730141656 -0.62246308910268489 -0.65591779348622503
  outer loop
   vertex -90 -139.58039855957031 97.5
   vertex -89.843864440917969 -139.6875 97.5
   vertex -90 -139.6875 97.601638793945312
  endloop
 endfacet
 facet normal -0.32259984007080394 -0.42920692893103857 -0.84362951308253675
  outer loop
   vertex -90 -138.75 97.082740783691406
   vertex -89.0625 -139.6875 97.201210021972656
   vertex -89.843864440917969 -139.6875 97.5
  endloop
 endfacet
 facet normal -0.19862582167146234 -0.83111061964711619 -0.51942556817615648
  outer loop
   vertex -89.843864440917969 -139.6875 97.5
   vertex -89.0625 -139.6875 97.201210021972656
   vertex -89.0625 -139.87423706054688 97.5
  endloop
 endfacet
 facet normal -0.21890569448863881 -0.91596775212673409 -0.33627871473577492
  outer loop
   vertex -89.843864440917969 -139.6875 97.5
   vertex -89.0625 -139.87423706054688 97.5
   vertex -90 -139.6875 97.601638793945312
  endloop
 endfacet
 facet normal -0.11153401985767196 -0.8866992483060343 -0.44869210542186055
  outer loop
   vertex -88.125 -139.6875 96.968170166015625
   vertex -88.125 -139.95661926269531 97.5
   vertex -89.0625 -139.6875 97.201210021972656
  endloop
 endfacet
 facet normal -0.074312007750626921 -0.84566211450241113 -0.52851992734369213
  outer loop
   vertex -89.0625 -139.6875 97.201210021972656
   vertex -88.125 -139.95661926269531 97.5
   vertex -89.0625 -139.87423706054688 97.5
  endloop
 endfacet
 facet normal 0.70679542560965536 0.69467518293358999 -0.13366606358178479
  outer loop
   vertex -90.9375 -133.78309631347656 99
   vertex -90.662887573242188 -134.0625 99
   vertex -90.9375 -134.0625 97.54791259765625
  endloop
 endfacet
 facet normal 0.96311025847704701 0.19810083279087021 -0.18213920518065041
  outer loop
   vertex -90.9375 -134.0625 97.54791259765625
   vertex -90.662887573242188 -134.0625 99
   vertex -90.9375 -134.10655212402344 97.5
  endloop
 endfacet
 facet normal 0.82003202512507656 0.55770416764617281 0.12850501608635925
  outer loop
   vertex -90 -134.79649353027344 99
   vertex -89.861595153808594 -135 99
   vertex -90 -134.45086669921875 97.5
  endloop
 endfacet
 facet normal 0.76426272827999964 0.62516300419880599 0.15834677244306328
  outer loop
   vertex -90 -134.45086669921875 97.5
   vertex -89.861595153808594 -135 99
   vertex -89.550811767578125 -135 97.5
  endloop
 endfacet
 facet normal -0.97822412699105932 -0.04471586036221338 -0.20267720445241699
  outer loop
   vertex -91.075904846191406 -135 97.5
   vertex -91.386688232421875 -135 99
   vertex -91.429542541503906 -134.0625 99
  endloop
 endfacet
 facet normal -0.68797368453275021 -0.03144814604508836 0.72505394523494504
  outer loop
   vertex -91.429542541503906 -134.0625 99
   vertex -91.386688232421875 -135 99
   vertex -90.9375 -135 99.426216125488281
  endloop
 endfacet
 facet normal -0.46953624377411662 0.14919315890372203 0.87021670698672637
  outer loop
   vertex -91.429542541503906 -134.0625 99
   vertex -90.9375 -135 99.426216125488281
   vertex -90.9375 -134.0625 99.265487670898438
  endloop
 endfacet
 facet normal 0.82893416360548944 0.48370437117964538 0.28088829400559084
  outer loop
   vertex -89.0625 -135.84263610839844 97.5
   vertex -89.515426635742188 -135.9375 99
   vertex -89.0625 -135.9375 97.663360595703125
  endloop
 endfacet
 facet normal 0.67654172900473342 0.69981140723611313 0.22924939087704632
  outer loop
   vertex -89.0625 -135.9375 97.663360595703125
   vertex -89.515426635742188 -135.9375 99
   vertex -89.0625 -136.3753662109375 99
  endloop
 endfacet
 facet normal 0.82552201746001042 0.54815790602727932 0.1342993251976442
  outer loop
   vertex -89.020210266113281 -135.9375 97.5
   vertex -88.6417236328125 -136.875 99
   vertex -88.397697448730469 -136.875 97.5
  endloop
 endfacet
 facet normal 0.6815415405449321 0.72333093662621029 0.11087598762171251
  outer loop
   vertex -88.397697448730469 -136.875 97.5
   vertex -88.6417236328125 -136.875 99
   vertex -88.125 -137.13194274902344 97.5
  endloop
 endfacet
 facet normal -0.90101748246761981 -0.35147333484368976 -0.25423216000649485
  outer loop
   vertex -90.9375 -136.0556640625 99
   vertex -90.9375 -135.9375 98.836639404296875
   vertex -90.617889404296875 -136.875 99
  endloop
 endfacet
 facet normal -0.88568656374021726 -0.35424261089940634 -0.30011911540789593
  outer loop
   vertex -90.617889404296875 -136.875 99
   vertex -90.9375 -135.9375 98.836639404296875
   vertex -90.484573364257812 -135.9375 97.5
  endloop
 endfacet
 facet normal 0.60979441799710077 0.74609090318881932 0.26739321599185928
  outer loop
   vertex -87.1875 -137.8125 98.040412902832031
   vertex -87.1875 -137.61882019042969 97.5
   vertex -87.6082763671875 -137.8125 99
  endloop
 endfacet
 facet normal 0.64631025403961961 0.71245606910148696 0.27329362437440718
  outer loop
   vertex -87.6082763671875 -137.8125 99
   vertex -87.1875 -137.61882019042969 97.5
   vertex -88.125 -137.34375 99
  endloop
 endfacet
 facet normal 0.60511192391297219 0.66704134737594034 0.43462098480081635
  outer loop
   vertex -87.6082763671875 -137.8125 99
   vertex -88.125 -137.34375 99
   vertex -88.125 -137.8125 99.71942138671875
  endloop
 endfacet
 facet normal 0.51730656383058071 0.71702690059888996 0.46718983597178881
  outer loop
   vertex -88.125 -137.8125 99.71942138671875
   vertex -88.125 -137.34375 99
   vertex -88.8299560546875 -137.8125 100.5
  endloop
 endfacet
 facet normal 0.55675815208496282 0.66120576387654317 0.50281934917361171
  outer loop
   vertex -88.125 -137.8125 99.71942138671875
   vertex -88.8299560546875 -137.8125 100.5
   vertex -88.125 -138.40609741210938 100.5
  endloop
 endfacet
 facet normal 0.52658648163531441 0.62537389983937908 0.57585949914768886
  outer loop
   vertex -88.125 -138.40609741210938 100.5
   vertex -88.8299560546875 -137.8125 100.5
   vertex -89.0625 -137.8125 100.712646484375
  endloop
 endfacet
 facet normal 0.45731208397252537 0.88057084239914629 0.1243408596124527
  outer loop
   vertex -87.1875 -137.61882019042969 97.5
   vertex -88.125 -137.13194274902344 97.5
   vertex -88.125 -137.34375 99
  endloop
 endfacet
 facet normal 0.66824400760579106 0.73663460525919622 0.10401636714277042
  outer loop
   vertex -88.125 -137.34375 99
   vertex -88.125 -137.13194274902344 97.5
   vertex -88.6417236328125 -136.875 99
  endloop
 endfacet
 facet normal 0.58940960974336287 0.64973199949053517 0.48004649856051229
  outer loop
   vertex -88.125 -137.34375 99
   vertex -88.6417236328125 -136.875 99
   vertex -88.8299560546875 -137.8125 100.5
  endloop
 endfacet
 facet normal 0.53459660354347693 0.68487325470768223 0.49513139313305998
  outer loop
   vertex -88.8299560546875 -137.8125 100.5
   vertex -88.6417236328125 -136.875 99
   vertex -89.0625 -137.6309814453125 100.5
  endloop
 endfacet
 facet normal 0.51050175103419682 0.65400526948227633 0.55826971051673069
  outer loop
   vertex -88.8299560546875 -137.8125 100.5
   vertex -89.0625 -137.6309814453125 100.5
   vertex -89.0625 -137.8125 100.712646484375
  endloop
 endfacet
 facet normal -0.037001834837909579 0.76005943057343806 0.64879929578800366
  outer loop
   vertex -89.0625 -137.8125 100.712646484375
   vertex -89.0625 -137.6309814453125 100.5
   vertex -90 -137.8125 100.6591796875
  endloop
 endfacet
 facet normal -0.044972432451682677 0.61331411447948292 0.78855771970073729
  outer loop
   vertex -89.0625 -137.8125 100.712646484375
   vertex -90 -137.8125 100.6591796875
   vertex -90 -138.75 101.38833618164062
  endloop
 endfacet
 facet normal -0.65124039095601727 0.46589798428182888 0.59902005094118715
  outer loop
   vertex -90 -138.75 101.38833618164062
   vertex -90 -137.8125 100.6591796875
   vertex -90.146415710449219 -137.8125 100.5
  endloop
 endfacet
 facet normal -0.59827895340066728 0.49992906034489359 0.62620542040170335
  outer loop
   vertex -90 -138.75 101.38833618164062
   vertex -90.146415710449219 -137.8125 100.5
   vertex -90.929801940917969 -138.75 100.5
  endloop
 endfacet
 facet normal -0.74099259395708561 0.61918228798432251 0.25989088084665302
  outer loop
   vertex -90.929801940917969 -138.75 100.5
   vertex -90.146415710449219 -137.8125 100.5
   vertex -90.672515869140625 -137.8125 99
  endloop
 endfacet
 facet normal -0.91137890308855651 0.40066794434959768 0.094094066634232434
  outer loop
   vertex -90.929801940917969 -138.75 100.5
   vertex -90.672515869140625 -137.8125 99
   vertex -90.9375 -138.75 100.42543792724609
  endloop
 endfacet
 facet normal -0.93155038550209257 0.3582140341141547 0.062422632390551278
  outer loop
   vertex -90.9375 -138.75 100.42543792724609
   vertex -90.672515869140625 -137.8125 99
   vertex -90.9375 -138.50160217285156 99
  endloop
 endfacet
 facet normal 0.89749669062882809 0.21692217087943547 0.38398497638742912
  outer loop
   vertex -86.25 -138.75 97.582916259765625
   vertex -86.25 -138.60322570800781 97.5
   vertex -86.856285095214844 -138.75 99
  endloop
 endfacet
 facet normal 0.79700285609117416 0.47820017566266249 0.36893229647011128
  outer loop
   vertex -86.856285095214844 -138.75 99
   vertex -86.25 -138.60322570800781 97.5
   vertex -86.724433898925781 -137.8125 97.5
  endloop
 endfacet
 facet normal 0.74960241858957333 0.52966291989305248 0.39692997535463104
  outer loop
   vertex -86.856285095214844 -138.75 99
   vertex -86.724433898925781 -137.8125 97.5
   vertex -87.1875 -138.28125 99
  endloop
 endfacet
 facet normal -0.91730109239104007 -0.13004320266859834 -0.37636082598737414
  outer loop
   vertex -91.033615112304688 -138.75 99
   vertex -90.9375 -138.75 98.765739440917969
   vertex -90.9375 -139.427978515625 99
  endloop
 endfacet
 facet normal 0.69109719837190253 -0.72173395723973388 0.038532549481978332
  outer loop
   vertex -86.942108154296875 -139.6875 97.5
   vertex -87.025741577148438 -139.6875 99
   vertex -87.1875 -139.84239196777344 99
  endloop
 endfacet
 facet normal 0.67518148021148161 -0.7051126856193396 0.21667041643499724
  outer loop
   vertex -87.1875 -139.84239196777344 99
   vertex -87.025741577148438 -139.6875 99
   vertex -87.1875 -139.6875 99.504066467285156
  endloop
 endfacet
 facet normal 0.45377512086191019 -0.85180769662147071 0.2617475647703022
  outer loop
   vertex -87.1875 -139.84239196777344 99
   vertex -87.1875 -139.6875 99.504066467285156
   vertex -88.125 -139.88088989257812 100.5
  endloop
 endfacet
 facet normal 0.59256178661108827 -0.80540725593978379 0.013772477185412359
  outer loop
   vertex -86.942108154296875 -139.6875 97.5
   vertex -87.1875 -139.84239196777344 99
   vertex -87.1875 -139.8680419921875 97.5
  endloop
 endfacet
 facet normal 0.30590444020567281 -0.95192305542121836 0.016277899741242149
  outer loop
   vertex -87.1875 -139.8680419921875 97.5
   vertex -87.1875 -139.84239196777344 99
   vertex -88.125 -140.14366149902344 99
  endloop
 endfacet
 facet normal 0.65012555413556539 0.20509619051796338 0.73162306995811943
  outer loop
   vertex -89.515426635742188 -135.9375 99
   vertex -90 -135 99.16778564453125
   vertex -90 -135.9375 99.430595397949219
  endloop
 endfacet
 facet normal -0.35071576465093496 0.2527798201604996 0.90172102944587884
  outer loop
   vertex -90 -135.9375 99.430595397949219
   vertex -90 -135 99.16778564453125
   vertex -90.9375 -135.9375 99.065963745117188
  endloop
 endfacet
 facet normal 0.54747073574498495 0.56630101230549168 0.61609979464744202
  outer loop
   vertex -89.0625 -136.3753662109375 99
   vertex -89.515426635742188 -135.9375 99
   vertex -90 -135.9375 99.430595397949219
  endloop
 endfacet
 facet normal -0.73492455845404014 -0.2866829894475999 0.61457201119357963
  outer loop
   vertex -90.9375 -136.0556640625 99
   vertex -90.617889404296875 -136.875 99
   vertex -90 -136.875 99.7388916015625
  endloop
 endfacet
 facet normal -0.64845464084251214 0.53428259781260645 0.54226256043029675
  outer loop
   vertex -90 -136.875 99.7388916015625
   vertex -90.617889404296875 -136.875 99
   vertex -90 -137.64747619628906 100.5
  endloop
 endfacet
 facet normal -0.012347619017847075 0.70179251846116952 0.71227438346224348
  outer loop
   vertex -90 -136.875 99.7388916015625
   vertex -90 -137.64747619628906 100.5
   vertex -89.0625 -137.6309814453125 100.5
  endloop
 endfacet
 facet normal -0.012213960197904553 0.69419585065611078 0.71968252730500748
  outer loop
   vertex -89.0625 -137.6309814453125 100.5
   vertex -90 -137.64747619628906 100.5
   vertex -90 -137.8125 100.6591796875
  endloop
 endfacet
 facet normal 0.61215846207082436 0.62370441018032374 0.48606051684609997
  outer loop
   vertex -88.6417236328125 -136.875 99
   vertex -89.0625 -136.875 99.529937744140625
   vertex -89.0625 -137.6309814453125 100.5
  endloop
 endfacet
 facet normal 0.13573762535022715 0.78146512508419208 0.60900538202993693
  outer loop
   vertex -89.0625 -137.6309814453125 100.5
   vertex -89.0625 -136.875 99.529937744140625
   vertex -90 -136.875 99.7388916015625
  endloop
 endfacet
 facet normal -0.62719917668315339 0.55647616272429024 0.54493621010869142
  outer loop
   vertex -90 -137.64747619628906 100.5
   vertex -90.617889404296875 -136.875 99
   vertex -90.146415710449219 -137.8125 100.5
  endloop
 endfacet
 facet normal -0.94221913247459066 0.054901440336247311 0.33046775674464085
  outer loop
   vertex -90.146415710449219 -137.8125 100.5
   vertex -90.617889404296875 -136.875 99
   vertex -90.672515869140625 -137.8125 99
  endloop
 endfacet
 facet normal 0.74768635942784145 0.52830904820704561 0.40231164227263677
  outer loop
   vertex -86.856285095214844 -138.75 99
   vertex -87.1875 -138.28125 99
   vertex -87.1875 -138.75 99.615554809570312
  endloop
 endfacet
 facet normal 0.66005091245739655 0.5976591588804 0.45512231627391209
  outer loop
   vertex -87.1875 -138.75 99.615554809570312
   vertex -87.1875 -138.28125 99
   vertex -87.797348022460938 -138.75 100.5
  endloop
 endfacet
 facet normal 0.82283228750374782 0.032322684340662357 0.56736431921505592
  outer loop
   vertex -87.1875 -138.75 99.615554809570312
   vertex -87.797348022460938 -138.75 100.5
   vertex -87.760520935058594 -139.6875 100.5
  endloop
 endfacet
 facet normal 0.75138191478652627 0.029515954611609392 0.65920711961802936
  outer loop
   vertex -87.760520935058594 -139.6875 100.5
   vertex -87.797348022460938 -138.75 100.5
   vertex -88.125 -138.75 100.87346649169922
  endloop
 endfacet
 facet normal 0.68542009710218121 -0.023441693555053909 0.72777041537266918
  outer loop
   vertex -87.760520935058594 -139.6875 100.5
   vertex -88.125 -138.75 100.87346649169922
   vertex -88.125 -139.6875 100.84326934814453
  endloop
 endfacet
 facet normal 0.52161533267210969 -0.027466952527322688 0.85273853627019003
  outer loop
   vertex -88.125 -139.6875 100.84326934814453
   vertex -88.125 -138.75 100.87346649169922
   vertex -89.0625 -139.6875 101.41673278808594
  endloop
 endfacet
 facet normal 0.64443047709694956 0.60866131666066381 0.46286149309432212
  outer loop
   vertex -87.6082763671875 -137.8125 99
   vertex -88.125 -137.8125 99.71942138671875
   vertex -88.125 -138.40609741210938 100.5
  endloop
 endfacet
 facet normal 0.30177666850687224 -0.93907812566157978 0.16450871177183091
  outer loop
   vertex -87.1875 -139.84239196777344 99
   vertex -88.125 -139.88088989257812 100.5
   vertex -88.125 -140.14366149902344 99
  endloop
 endfacet
 facet normal 0.17611937632205724 -0.96960344813863775 0.16985617045486939
  outer loop
   vertex -88.125 -140.14366149902344 99
   vertex -88.125 -139.88088989257812 100.5
   vertex -89.0625 -140.05117797851562 100.5
  endloop
 endfacet
 facet normal -0.057893740383257258 -0.99775355095296669 0.033707067288358587
  outer loop
   vertex -89.0625 -140.15625 99
   vertex -90 -140.05117797851562 100.5
   vertex -90 -140.10185241699219 99
  endloop
 endfacet
 facet normal -0.41288143315225534 -0.91026549410163671 0.030751461852127435
  outer loop
   vertex -90 -140.10185241699219 99
   vertex -90 -140.05117797851562 100.5
   vertex -90.801788330078125 -139.6875 100.5
  endloop
 endfacet
 facet normal -0.42830182564716412 -0.90340061379460945 0.020612548188646784
  outer loop
   vertex -90 -140.10185241699219 99
   vertex -90.801788330078125 -139.6875 100.5
   vertex -90.873977661132812 -139.6875 99
  endloop
 endfacet
 facet normal -0.61624547191163093 0.54675759831049975 0.56683123329448382
  outer loop
   vertex -90 -137.64747619628906 100.5
   vertex -90.146415710449219 -137.8125 100.5
   vertex -90 -137.8125 100.6591796875
  endloop
 endfacet
 facet normal 0.49439346453035204 0.0092874727291091114 0.86918861306392048
  outer loop
   vertex -88.125 -138.75 100.87346649169922
   vertex -89.0625 -138.75 101.40671539306641
   vertex -89.0625 -139.6875 101.41673278808594
  endloop
 endfacet
 facet normal 0 0.01068461141940207 0.99994291791022571
  outer loop
   vertex -89.0625 -139.6875 101.41673278808594
   vertex -89.0625 -138.75 101.40671539306641
   vertex -90 -139.6875 101.41673278808594
  endloop
 endfacet
endsolid
