solid ITK-SNAP coord sys for 3D Slicer: SPACE=RAS
 facet normal 0.38299797613161657 0.89833326489997389 -0.21519734072064833
  outer loop
   vertex -146.59719848632812 -123.75 102
   vertex -147.1875 -123.75 100.94940948486328
   vertex -147.1875 -123.49832916259766 102
  endloop
 endfacet
 facet normal -0.45153688687378862 0.867703133323111 -0.2078598379042538
  outer loop
   vertex -147.1875 -123.49832916259766 102
   vertex -147.1875 -123.75 100.94940948486328
   vertex -147.67112731933594 -123.75 102
  endloop
 endfacet
 facet normal -0.45877864754171727 0.8816193793818613 0.11076742507675545
  outer loop
   vertex -147.1875 -123.49832916259766 102
   vertex -147.67112731933594 -123.75 102
   vertex -147.1875 -123.68679046630859 103.5
  endloop
 endfacet
 facet normal -0.65169574174667122 0.73704153291083996 0.17905987533139636
  outer loop
   vertex -147.1875 -123.68679046630859 103.5
   vertex -147.67112731933594 -123.75 102
   vertex -147.25898742675781 -123.75 103.5
  endloop
 endfacet
 facet normal -0.65953070945495007 0.74590256458574311 0.092997889386057131
  outer loop
   vertex -147.1875 -123.68679046630859 103.5
   vertex -147.25898742675781 -123.75 103.5
   vertex -147.1875 -123.75 104.00698089599609
  endloop
 endfacet
 facet normal -0.91663642382781507 -0.3782482622656726 0.12925137757545602
  outer loop
   vertex -147.1875 -123.75 104.00698089599609
   vertex -147.25898742675781 -123.75 103.5
   vertex -147.1875 -123.92324066162109 103.5
  endloop
 endfacet
 facet normal 0.54250718441108969 -0.79492222837564519 0.27163321905954424
  outer loop
   vertex -147.1875 -123.75 104.00698089599609
   vertex -147.1875 -123.92324066162109 103.5
   vertex -146.93365478515625 -123.75 103.5
  endloop
 endfacet
 facet normal 0.55924919446827981 -0.81945387758614552 0.12544194272893849
  outer loop
   vertex -146.93365478515625 -123.75 103.5
   vertex -147.1875 -123.92324066162109 103.5
   vertex -146.59719848632812 -123.75 102
  endloop
 endfacet
 facet normal 0.39067795091088448 0.91634687658401659 0.087630704931488071
  outer loop
   vertex -146.93365478515625 -123.75 103.5
   vertex -146.59719848632812 -123.75 102
   vertex -147.1875 -123.49832916259766 102
  endloop
 endfacet
 facet normal 0.69643736551760194 -0.60154001925503908 -0.39131138642460872
  outer loop
   vertex -147.1875 -123.75 100.94940948486328
   vertex -146.59719848632812 -123.75 102
   vertex -147.1875 -124.43342590332031 102
  endloop
 endfacet
 facet normal 0.73874703670761266 -0.63808452660409254 0.21702753895336035
  outer loop
   vertex -147.1875 -124.43342590332031 102
   vertex -146.59719848632812 -123.75 102
   vertex -147.1875 -123.92324066162109 103.5
  endloop
 endfacet
 facet normal -0.91670738327245305 -0.37827754354440857 0.12866107998839388
  outer loop
   vertex -147.1875 -124.43342590332031 102
   vertex -147.1875 -123.92324066162109 103.5
   vertex -147.25898742675781 -123.75 103.5
  endloop
 endfacet
 facet normal -0.7641200866248512 -0.5407306737273585 -0.35175393630603047
  outer loop
   vertex -147.1875 -123.75 100.94940948486328
   vertex -147.1875 -124.43342590332031 102
   vertex -147.67112731933594 -123.75 102
  endloop
 endfacet
 facet normal -0.79649963493734977 -0.56364410746699634 0.21884618265439673
  outer loop
   vertex -147.67112731933594 -123.75 102
   vertex -147.1875 -124.43342590332031 102
   vertex -147.25898742675781 -123.75 103.5
  endloop
 endfacet
 facet normal 0.23985368194890147 0.96323617450861188 0.12102183015295273
  outer loop
   vertex -147.1875 -123.49832916259766 102
   vertex -147.1875 -123.68679046630859 103.5
   vertex -146.93365478515625 -123.75 103.5
  endloop
 endfacet
 facet normal 0.23988049618082646 0.96334385865159422 0.12010810776253869
  outer loop
   vertex -146.93365478515625 -123.75 103.5
   vertex -147.1875 -123.68679046630859 103.5
   vertex -147.1875 -123.75 104.00698089599609
  endloop
 endfacet
endsolid
