solid ITK-SNAP coord sys for 3D Slicer: SPACE=RAS
 facet normal 0.40486612213697648 0.78345634468196734 -0.47146535304658099
  outer loop
   vertex -142.32392883300781 -128.4375 88.5
   vertex -142.5 -128.4375 88.348800659179688
   vertex -142.5 -128.34651184082031 88.5
  endloop
 endfacet
 facet normal -0.1501355764170077 0.84710908411038466 -0.50977005434960376
  outer loop
   vertex -142.5 -128.34651184082031 88.5
   vertex -142.5 -128.4375 88.348800659179688
   vertex -143.01338195800781 -128.4375 88.5
  endloop
 endfacet
 facet normal -0.16971001647327968 0.95755383267541427 -0.23300036016552356
  outer loop
   vertex -142.5 -128.34651184082031 88.5
   vertex -143.01338195800781 -128.4375 88.5
   vertex -143.4375 -128.14767456054688 90
  endloop
 endfacet
 facet normal -0.14238698832317059 0.96356252367590078 -0.22643588170514511
  outer loop
   vertex -143.4375 -128.14767456054688 90
   vertex -143.01338195800781 -128.4375 88.5
   vertex -143.4375 -128.4375 88.766693115234375
  endloop
 endfacet
 facet normal -0.58858297169701812 0.78699809056487158 -0.1849434802191024
  outer loop
   vertex -143.4375 -128.14767456054688 90
   vertex -143.4375 -128.4375 88.766693115234375
   vertex -143.82502746582031 -128.4375 90
  endloop
 endfacet
 facet normal -0.88068549120425133 0.38446717369263322 -0.27672740727135292
  outer loop
   vertex -143.82502746582031 -128.4375 90
   vertex -143.4375 -128.4375 88.766693115234375
   vertex -143.76296997070312 -129.375 88.5
  endloop
 endfacet
 facet normal -0.95804535995709128 0.2235595105095185 -0.1793606242335033
  outer loop
   vertex -143.82502746582031 -128.4375 90
   vertex -143.76296997070312 -129.375 88.5
   vertex -144.04379272460938 -129.375 90
  endloop
 endfacet
 facet normal -0.78164397339892977 -0.60631558486432358 -0.14633560878940738
  outer loop
   vertex -144.04379272460938 -129.375 90
   vertex -143.76296997070312 -129.375 88.5
   vertex -143.4375 -129.79458618164062 88.5
  endloop
 endfacet
 facet normal -0.73186033294965991 -0.67290844543380268 -0.10758567338951698
  outer loop
   vertex -144.04379272460938 -129.375 90
   vertex -143.4375 -129.79458618164062 88.5
   vertex -143.4375 -130.03440856933594 90
  endloop
 endfacet
 facet normal -0.063660069083647824 -0.98545594469622633 -0.15755626508372589
  outer loop
   vertex -143.4375 -130.03440856933594 90
   vertex -143.4375 -129.79458618164062 88.5
   vertex -142.5 -129.85514831542969 88.5
  endloop
 endfacet
 facet normal -0.011350637380255027 -0.9920101858362288 -0.12564614688971848
  outer loop
   vertex -143.4375 -130.03440856933594 90
   vertex -142.5 -129.85514831542969 88.5
   vertex -142.5 -130.04513549804688 90
  endloop
 endfacet
 facet normal 0.70428782710632554 -0.70428782710632554 -0.089203773349007753
  outer loop
   vertex -142.5 -130.04513549804688 90
   vertex -142.5 -129.85514831542969 88.5
   vertex -142.01985168457031 -129.375 88.5
  endloop
 endfacet
 facet normal 0.65436044844545715 -0.74597806303380632 -0.12381087586553451
  outer loop
   vertex -142.5 -130.04513549804688 90
   vertex -142.01985168457031 -129.375 88.5
   vertex -141.73603820800781 -129.375 90
  endloop
 endfacet
 facet normal 0.97166972718567812 0.14851807304688644 -0.18384864222873548
  outer loop
   vertex -141.73603820800781 -129.375 90
   vertex -142.01985168457031 -129.375 88.5
   vertex -141.87933349609375 -128.4375 90
  endloop
 endfacet
 facet normal 0.96363385972666094 0.1472898043081555 -0.22296972425682199
  outer loop
   vertex -141.73603820800781 -129.375 90
   vertex -141.87933349609375 -128.4375 90
   vertex -141.5625 -129.375 90.75
  endloop
 endfacet
 facet normal 0.92572643704794599 0.010414230271171271 -0.37805040346278457
  outer loop
   vertex -141.5625 -129.375 90.75
   vertex -141.87933349609375 -128.4375 90
   vertex -141.5625 -128.4375 90.775825500488281
  endloop
 endfacet
 facet normal 0.72728754640314675 0.018899380002244642 -0.68607261881117332
  outer loop
   vertex -141.5625 -129.375 90.75
   vertex -141.5625 -128.4375 90.775825500488281
   vertex -140.87936401367188 -128.4375 91.5
  endloop
 endfacet
 facet normal 0.26381712437159877 0.93191515370967926 -0.2488667739465539
  outer loop
   vertex -140.87936401367188 -128.4375 91.5
   vertex -141.5625 -128.4375 90.775825500488281
   vertex -141.5625 -128.24411010742188 91.5
  endloop
 endfacet
 facet normal 0.26852333236762793 0.94853949740403221 -0.16783337522283973
  outer loop
   vertex -140.87936401367188 -128.4375 91.5
   vertex -141.5625 -128.24411010742188 91.5
   vertex -140.625 -128.4375 91.906967163085938
  endloop
 endfacet
 facet normal 0.27352904474233125 0.94463841531936843 -0.1812184482475781
  outer loop
   vertex -140.625 -128.4375 91.906967163085938
   vertex -141.5625 -128.24411010742188 91.5
   vertex -140.625 -128.22781372070312 93
  endloop
 endfacet
 facet normal 0.35865273891468658 0.91675419204753894 -0.1758691679409948
  outer loop
   vertex -140.625 -128.4375 91.906967163085938
   vertex -140.625 -128.22781372070312 93
   vertex -140.08901977539062 -128.4375 93
  endloop
 endfacet
 facet normal 0.35113183784082963 0.89752997642242627 0.26673277615936203
  outer loop
   vertex -140.08901977539062 -128.4375 93
   vertex -140.625 -128.22781372070312 93
   vertex -140.625 -128.4375 93.705574035644531
  endloop
 endfacet
 facet normal 0.57934287797160022 -0.68606290646721158 0.44009035221570769
  outer loop
   vertex -140.08901977539062 -128.4375 93
   vertex -140.625 -128.4375 93.705574035644531
   vertex -140.625 -128.89010620117188 93
  endloop
 endfacet
 facet normal 0.16442876675166249 -0.83025176111293097 0.53258350878843774
  outer loop
   vertex -140.625 -128.89010620117188 93
   vertex -140.625 -128.4375 93.705574035644531
   vertex -141.5625 -129.07577514648438 93
  endloop
 endfacet
 facet normal 0.17999150862646526 -0.908832864070515 -0.37633214320298763
  outer loop
   vertex -140.625 -128.89010620117188 93
   vertex -141.5625 -129.07577514648438 93
   vertex -140.625 -128.4375 91.906967163085938
  endloop
 endfacet
 facet normal 0.77821881633262069 -0.50591734725129145 0.37205256571628575
  outer loop
   vertex -140.625 -128.4375 91.906967163085938
   vertex -141.5625 -129.07577514648438 93
   vertex -141.03990173339844 -129.375 91.5
  endloop
 endfacet
 facet normal 0.8391880037071342 -0.14370275043949801 -0.52451216759018882
  outer loop
   vertex -140.625 -128.4375 91.906967163085938
   vertex -141.03990173339844 -129.375 91.5
   vertex -140.87936401367188 -128.4375 91.5
  endloop
 endfacet
 facet normal 0.81248462315817949 -0.13913005729569022 -0.56613740760385112
  outer loop
   vertex -140.87936401367188 -128.4375 91.5
   vertex -141.03990173339844 -129.375 91.5
   vertex -141.5625 -129.375 90.75
  endloop
 endfacet
 facet normal 0.62915133461126105 0.25961549646066701 -0.73264479262078319
  outer loop
   vertex -142.32392883300781 -128.4375 88.5
   vertex -142.5 -129.375 88.016593933105469
   vertex -142.5 -128.4375 88.348800659179688
  endloop
 endfacet
 facet normal -0.094946211625778473 0.33249500505237833 -0.93831353422677
  outer loop
   vertex -142.5 -128.4375 88.348800659179688
   vertex -142.5 -129.375 88.016593933105469
   vertex -143.4375 -129.375 88.111457824707031
  endloop
 endfacet
 facet normal -0.24159674267138573 0.45815677832445467 -0.85540831209775647
  outer loop
   vertex -142.5 -128.4375 88.348800659179688
   vertex -143.4375 -129.375 88.111457824707031
   vertex -143.4375 -128.64956665039062 88.5
  endloop
 endfacet
 facet normal -0.72490751480569093 0.32523405180272996 -0.60723299196125391
  outer loop
   vertex -143.4375 -128.64956665039062 88.5
   vertex -143.4375 -129.375 88.111457824707031
   vertex -143.76296997070312 -129.375 88.5
  endloop
 endfacet
 facet normal -0.86757696840033605 0.38924354751544249 -0.30951520902675478
  outer loop
   vertex -143.4375 -128.64956665039062 88.5
   vertex -143.76296997070312 -129.375 88.5
   vertex -143.4375 -128.4375 88.766693115234375
  endloop
 endfacet
 facet normal 0.69142185576957627 0.22426195868776233 -0.68676225234769839
  outer loop
   vertex -142.32392883300781 -128.4375 88.5
   vertex -142.01985168457031 -129.375 88.5
   vertex -142.5 -129.375 88.016593933105469
  endloop
 endfacet
 facet normal 0.57864720824815019 -0.57864720824815019 -0.57474761136801944
  outer loop
   vertex -142.5 -129.375 88.016593933105469
   vertex -142.01985168457031 -129.375 88.5
   vertex -142.5 -129.85514831542969 88.5
  endloop
 endfacet
 facet normal -0.071127898846734539 -0.7076964326069819 -0.70292715218648383
  outer loop
   vertex -142.5 -129.375 88.016593933105469
   vertex -142.5 -129.85514831542969 88.5
   vertex -143.4375 -129.375 88.111457824707031
  endloop
 endfacet
 facet normal -0.043849493099070984 -0.67878882741419022 -0.73302315770555515
  outer loop
   vertex -143.4375 -129.375 88.111457824707031
   vertex -142.5 -129.85514831542969 88.5
   vertex -143.4375 -129.79458618164062 88.5
  endloop
 endfacet
 facet normal -0.65889512475194223 -0.51110018950319758 -0.55193641922590875
  outer loop
   vertex -143.4375 -129.375 88.111457824707031
   vertex -143.4375 -129.79458618164062 88.5
   vertex -143.76296997070312 -129.375 88.5
  endloop
 endfacet
 facet normal -0.24597108634950388 0.49192447439088072 -0.83516976488334416
  outer loop
   vertex -142.5 -128.4375 88.348800659179688
   vertex -143.4375 -128.64956665039062 88.5
   vertex -143.01338195800781 -128.4375 88.5
  endloop
 endfacet
 facet normal -0.36445127569443408 0.72887632809949598 -0.57958137131976173
  outer loop
   vertex -143.01338195800781 -128.4375 88.5
   vertex -143.4375 -128.64956665039062 88.5
   vertex -143.4375 -128.4375 88.766693115234375
  endloop
 endfacet
 facet normal 0.47621396140663041 0.86738666909260698 -0.14443209214657474
  outer loop
   vertex -141.87933349609375 -128.4375 90
   vertex -142.5 -128.34651184082031 88.5
   vertex -142.5 -128.09674072265625 90
  endloop
 endfacet
 facet normal -0.053514748729045249 0.98500484179524861 -0.16401717382147649
  outer loop
   vertex -142.5 -128.09674072265625 90
   vertex -142.5 -128.34651184082031 88.5
   vertex -143.4375 -128.14767456054688 90
  endloop
 endfacet
 facet normal -0.054201611259700161 0.99764739238944822 -0.041974585112739639
  outer loop
   vertex -142.5 -128.09674072265625 90
   vertex -143.4375 -128.14767456054688 90
   vertex -143.4375 -128.08456420898438 91.5
  endloop
 endfacet
 facet normal -0.59857509368617845 0.80035862137242675 -0.033673942647261118
  outer loop
   vertex -143.4375 -128.08456420898438 91.5
   vertex -143.4375 -128.14767456054688 90
   vertex -143.82502746582031 -128.4375 90
  endloop
 endfacet
 facet normal -0.52337555644799816 0.84964240246718048 -0.064697873555054464
  outer loop
   vertex -143.4375 -128.08456420898438 91.5
   vertex -143.82502746582031 -128.4375 90
   vertex -144.01045227050781 -128.4375 91.5
  endloop
 endfacet
 facet normal -0.96685708791603142 0.22561572378665595 -0.11951952445837009
  outer loop
   vertex -144.01045227050781 -128.4375 91.5
   vertex -143.82502746582031 -128.4375 90
   vertex -144.04379272460938 -129.375 90
  endloop
 endfacet
 facet normal -0.97438263585916118 0.19980870490217401 -0.10322286753171087
  outer loop
   vertex -144.01045227050781 -128.4375 91.5
   vertex -144.04379272460938 -129.375 90
   vertex -144.20269775390625 -129.375 91.5
  endloop
 endfacet
 facet normal -0.73390477266487553 -0.67478820402791084 -0.077747439600952289
  outer loop
   vertex -144.20269775390625 -129.375 91.5
   vertex -144.04379272460938 -129.375 90
   vertex -143.4375 -130.03440856933594 90
  endloop
 endfacet
 facet normal -0.75461730492516732 -0.64852187769720482 -0.099860388821437468
  outer loop
   vertex -144.20269775390625 -129.375 91.5
   vertex -143.4375 -130.03440856933594 90
   vertex -143.4375 -130.265380859375 91.5
  endloop
 endfacet
 facet normal -0.011308052352220729 -0.98828838765354421 -0.15217815474356788
  outer loop
   vertex -143.4375 -130.265380859375 91.5
   vertex -143.4375 -130.03440856933594 90
   vertex -142.5 -130.04513549804688 90
  endloop
 endfacet
 facet normal 0.096069964165601665 -0.99168995267717852 -0.085566347031736531
  outer loop
   vertex -143.4375 -130.265380859375 91.5
   vertex -142.5 -130.04513549804688 90
   vertex -142.5 -130.174560546875 91.5
  endloop
 endfacet
 facet normal 0.56312132978474472 -0.82331519648703611 -0.071038406337514653
  outer loop
   vertex -142.5 -130.174560546875 91.5
   vertex -142.5 -130.04513549804688 90
   vertex -141.5625 -129.53334045410156 91.5
  endloop
 endfacet
 facet normal 0.55038968297082336 -0.80470080959777712 0.22254843048639697
  outer loop
   vertex -142.5 -130.174560546875 91.5
   vertex -141.5625 -129.53334045410156 91.5
   vertex -142.5 -129.75971984863281 93
  endloop
 endfacet
 facet normal 0.49308126694820581 -0.85121981009546965 0.17971004169434993
  outer loop
   vertex -142.5 -129.75971984863281 93
   vertex -141.5625 -129.53334045410156 91.5
   vertex -141.5625 -129.375 92.25
  endloop
 endfacet
 facet normal 0.4993033213897039 -0.84520944579830104 0.19057068500306895
  outer loop
   vertex -142.5 -129.75971984863281 93
   vertex -141.5625 -129.375 92.25
   vertex -141.8487548828125 -129.375 93
  endloop
 endfacet
 facet normal 0.69658715893623335 -0.66639342690687087 0.26586863406664507
  outer loop
   vertex -141.8487548828125 -129.375 93
   vertex -141.5625 -129.375 92.25
   vertex -141.5625 -129.07577514648438 93
  endloop
 endfacet
 facet normal 0.66228218736915823 -0.63357541229196368 0.39995562407921165
  outer loop
   vertex -141.8487548828125 -129.375 93
   vertex -141.5625 -129.07577514648438 93
   vertex -141.5625 -128.4375 94.011100769042969
  endloop
 endfacet
 facet normal 0.17139028784874316 -0.83309547310083887 0.52590617217333968
  outer loop
   vertex -141.5625 -128.4375 94.011100769042969
   vertex -141.5625 -129.07577514648438 93
   vertex -140.625 -128.4375 93.705574035644531
  endloop
 endfacet
 facet normal 0.092440793941139993 0.95446125552811123 0.28365191928001005
  outer loop
   vertex -141.5625 -128.4375 94.011100769042969
   vertex -140.625 -128.4375 93.705574035644531
   vertex -140.625 -128.22781372070312 93
  endloop
 endfacet
 facet normal 0.4548998183858004 0.88027653938516692 -0.13483089201158718
  outer loop
   vertex -142.5 -128.34651184082031 88.5
   vertex -141.87933349609375 -128.4375 90
   vertex -142.32392883300781 -128.4375 88.5
  endloop
 endfacet
 facet normal 0.91552469903456135 0.29694948246029851 -0.27135867468027763
  outer loop
   vertex -142.32392883300781 -128.4375 88.5
   vertex -141.87933349609375 -128.4375 90
   vertex -142.01985168457031 -129.375 88.5
  endloop
 endfacet
 facet normal 0.61995530315006975 0.5776771947398357 -0.53098444494506525
  outer loop
   vertex -153.67869567871094 -134.0625 90
   vertex -153.75 -134.0625 89.916748046875
   vertex -153.75 -133.98597717285156 90
  endloop
 endfacet
 facet normal -0.33172818667138804 0.69454555534388329 -0.63840651760439415
  outer loop
   vertex -153.75 -133.98597717285156 90
   vertex -153.75 -134.0625 89.916748046875
   vertex -153.91021728515625 -134.0625 90
  endloop
 endfacet
 facet normal -0.43083179081282796 0.90204063879056706 -0.026582964381675952
  outer loop
   vertex -153.75 -133.98597717285156 90
   vertex -153.91021728515625 -134.0625 90
   vertex -153.75 -133.9417724609375 91.5
  endloop
 endfacet
 facet normal -0.53947478527048576 0.84194067852881171 -0.010141493766071144
  outer loop
   vertex -153.75 -133.9417724609375 91.5
   vertex -153.91021728515625 -134.0625 90
   vertex -153.93841552734375 -134.0625 91.5
  endloop
 endfacet
 facet normal -0.49031491278702038 0.7652184710685197 0.4171714010262611
  outer loop
   vertex -153.75 -133.9417724609375 91.5
   vertex -153.93841552734375 -134.0625 91.5
   vertex -153.75 -134.0625 91.721450805664062
  endloop
 endfacet
 facet normal -0.62243752894190896 0.57629148050499202 0.52958441448182259
  outer loop
   vertex -153.75 -134.0625 91.721450805664062
   vertex -153.93841552734375 -134.0625 91.5
   vertex -154.6875 -134.87156677246094 91.5
  endloop
 endfacet
 facet normal -0.65478836656899586 0.65596755093992398 0.37544475907886143
  outer loop
   vertex -153.75 -134.0625 91.721450805664062
   vertex -154.6875 -134.87156677246094 91.5
   vertex -153.75 -134.79428100585938 93
  endloop
 endfacet
 facet normal -0.73468862330464357 0.52287806137704229 0.43223970169029319
  outer loop
   vertex -153.75 -134.79428100585938 93
   vertex -154.6875 -134.87156677246094 91.5
   vertex -154.6875 -135 91.655364990234375
  endloop
 endfacet
 facet normal -0.64836678620496924 0.67688492180944526 0.34849291696282841
  outer loop
   vertex -153.75 -134.79428100585938 93
   vertex -154.6875 -135 91.655364990234375
   vertex -153.96476745605469 -135 93
  endloop
 endfacet
 facet normal -0.86616712489727377 -0.1816842416503367 0.46555917785296941
  outer loop
   vertex -153.96476745605469 -135 93
   vertex -154.6875 -135 91.655364990234375
   vertex -154.6875 -135.39811706542969 91.5
  endloop
 endfacet
 facet normal -0.86760593725353174 -0.17649592052929777 0.46487538940982503
  outer loop
   vertex -153.96476745605469 -135 93
   vertex -154.6875 -135.39811706542969 91.5
   vertex -154.57777404785156 -135.9375 91.5
  endloop
 endfacet
 facet normal -0.97018497169413831 -0.19736343691342184 -0.14067265003747406
  outer loop
   vertex -154.57777404785156 -135.9375 91.5
   vertex -154.6875 -135.39811706542969 91.5
   vertex -154.55099487304688 -135 90
  endloop
 endfacet
 facet normal -0.57469785241080362 -0.689322268124134 -0.44108637374397536
  outer loop
   vertex -154.57777404785156 -135.9375 91.5
   vertex -154.55099487304688 -135 90
   vertex -153.75 -135.66780090332031 90
  endloop
 endfacet
 facet normal -0.34483902047903114 -0.41361772057640261 -0.84261879351237068
  outer loop
   vertex -153.75 -135.66780090332031 90
   vertex -154.55099487304688 -135 90
   vertex -153.75 -135 89.672195434570312
  endloop
 endfacet
 facet normal 0.69554231661010757 -0.31659770339746263 -0.64497037141879399
  outer loop
   vertex -153.75 -135.66780090332031 90
   vertex -153.75 -135 89.672195434570312
   vertex -153.44602966308594 -135 90
  endloop
 endfacet
 facet normal 0.72141339347509781 0.17903827187025212 -0.66896039712411781
  outer loop
   vertex -153.44602966308594 -135 90
   vertex -153.75 -135 89.672195434570312
   vertex -153.67869567871094 -134.0625 90
  endloop
 endfacet
 facet normal 0.96085244218485599 0.23846155661514787 -0.14106264694836265
  outer loop
   vertex -153.44602966308594 -135 90
   vertex -153.67869567871094 -134.0625 90
   vertex -153.45848083496094 -134.0625 91.5
  endloop
 endfacet
 facet normal 0.72742896790797051 0.67782164846140502 -0.10679377100471833
  outer loop
   vertex -153.45848083496094 -134.0625 91.5
   vertex -153.67869567871094 -134.0625 90
   vertex -153.75 -133.98597717285156 90
  endloop
 endfacet
 facet normal 0.38247770271267328 0.92356376520799077 -0.027217246783524062
  outer loop
   vertex -153.45848083496094 -134.0625 91.5
   vertex -153.75 -133.98597717285156 90
   vertex -153.75 -133.9417724609375 91.5
  endloop
 endfacet
 facet normal 0.74879823748858854 0.16729665700058613 -0.64133690685193812
  outer loop
   vertex -153.67869567871094 -134.0625 90
   vertex -153.75 -135 89.672195434570312
   vertex -153.75 -134.0625 89.916748046875
  endloop
 endfacet
 facet normal -0.36817883467946227 0.2346791935712719 -0.89964994403312815
  outer loop
   vertex -153.75 -134.0625 89.916748046875
   vertex -153.75 -135 89.672195434570312
   vertex -154.55099487304688 -135 90
  endloop
 endfacet
 facet normal -0.43976477805025693 0.30057750796618632 -0.84632151201020855
  outer loop
   vertex -153.75 -134.0625 89.916748046875
   vertex -154.55099487304688 -135 90
   vertex -153.91021728515625 -134.0625 90
  endloop
 endfacet
 facet normal -0.82548263224316198 0.56421415459666902 -0.015518106123711784
  outer loop
   vertex -153.91021728515625 -134.0625 90
   vertex -154.55099487304688 -135 90
   vertex -153.93841552734375 -134.0625 91.5
  endloop
 endfacet
 facet normal 0.47222612512485929 0.86012313566088017 -0.1928488481958241
  outer loop
   vertex -141.87933349609375 -128.4375 90
   vertex -142.5 -128.09674072265625 90
   vertex -141.5625 -128.4375 90.775825500488281
  endloop
 endfacet
 facet normal 0.49170489859214428 0.84128049607310496 -0.22466290220568133
  outer loop
   vertex -141.5625 -128.4375 90.775825500488281
   vertex -142.5 -128.09674072265625 90
   vertex -141.5625 -128.24411010742188 91.5
  endloop
 endfacet
 facet normal 0.21449607435226453 0.97597858314471841 -0.038173804241856304
  outer loop
   vertex -141.5625 -128.24411010742188 91.5
   vertex -142.5 -128.09674072265625 90
   vertex -142.5 -128.03807067871094 91.5
  endloop
 endfacet
 facet normal -0.049494472317509648 0.99801128296284636 -0.039035577219565271
  outer loop
   vertex -142.5 -128.03807067871094 91.5
   vertex -142.5 -128.09674072265625 90
   vertex -143.4375 -128.08456420898438 91.5
  endloop
 endfacet
 facet normal -0.048722901172543999 0.98245324845457938 0.18003247902080069
  outer loop
   vertex -142.5 -128.03807067871094 91.5
   vertex -143.4375 -128.08456420898438 91.5
   vertex -143.4375 -128.35943603515625 93
  endloop
 endfacet
 facet normal -0.51820500658095192 0.84124858591042639 0.15415702338247092
  outer loop
   vertex -143.4375 -128.35943603515625 93
   vertex -143.4375 -128.08456420898438 91.5
   vertex -144.01045227050781 -128.4375 91.5
  endloop
 endfacet
 facet normal -0.64850097745586366 0.73178188875150529 0.20962287454872156
  outer loop
   vertex -143.4375 -128.35943603515625 93
   vertex -144.01045227050781 -128.4375 91.5
   vertex -143.52558898925781 -128.4375 93
  endloop
 endfacet
 facet normal -0.93391247380008791 0.19150981864269706 0.30187991096467687
  outer loop
   vertex -143.52558898925781 -128.4375 93
   vertex -144.01045227050781 -128.4375 91.5
   vertex -144.20269775390625 -129.375 91.5
  endloop
 endfacet
 facet normal -0.93353077949512175 0.21372141836553357 0.28782536209836473
  outer loop
   vertex -143.52558898925781 -128.4375 93
   vertex -144.20269775390625 -129.375 91.5
   vertex -143.74021911621094 -129.375 93
  endloop
 endfacet
 facet normal -0.73848766738996074 -0.6346599867060555 0.2276898469128654
  outer loop
   vertex -143.74021911621094 -129.375 93
   vertex -144.20269775390625 -129.375 91.5
   vertex -143.4375 -130.265380859375 91.5
  endloop
 endfacet
 facet normal -0.82478788548236104 -0.54345766581701682 0.15613682917958585
  outer loop
   vertex -143.74021911621094 -129.375 93
   vertex -143.4375 -130.265380859375 91.5
   vertex -143.4375 -129.83442687988281 93
  endloop
 endfacet
 facet normal 0.092707484609150279 -0.95698048628800292 0.27494303257478908
  outer loop
   vertex -143.4375 -129.83442687988281 93
   vertex -143.4375 -130.265380859375 91.5
   vertex -142.5 -130.174560546875 91.5
  endloop
 endfacet
 facet normal 0.076578860818636366 -0.96098962595935833 0.26577173829098588
  outer loop
   vertex -143.4375 -129.83442687988281 93
   vertex -142.5 -130.174560546875 91.5
   vertex -142.5 -129.75971984863281 93
  endloop
 endfacet
 facet normal 0.28422578053905811 -0.93807928666109686 -0.19804786697758386
  outer loop
   vertex -141.5625 -129.375 90.75
   vertex -141.03990173339844 -129.375 91.5
   vertex -141.5625 -129.53334045410156 91.5
  endloop
 endfacet
 facet normal 0.28422578053905811 -0.93807928666109686 0.19804786697758386
  outer loop
   vertex -141.5625 -129.53334045410156 91.5
   vertex -141.03990173339844 -129.375 91.5
   vertex -141.5625 -129.375 92.25
  endloop
 endfacet
 facet normal 0.66596937303645631 -0.72989011077803001 -0.1540948421131107
  outer loop
   vertex -141.5625 -129.375 90.75
   vertex -141.5625 -129.53334045410156 91.5
   vertex -141.73603820800781 -129.375 90
  endloop
 endfacet
 facet normal 0.65158872553417169 -0.74281826862150768 -0.15379581450384033
  outer loop
   vertex -141.73603820800781 -129.375 90
   vertex -141.5625 -129.53334045410156 91.5
   vertex -142.5 -130.04513549804688 90
  endloop
 endfacet
 facet normal 0.85203192887059109 0.38107433826139792 -0.35892052170877287
  outer loop
   vertex -152.60762023925781 -135 91.5
   vertex -152.8125 -135 91.013641357421875
   vertex -152.8125 -134.54191589355469 91.5
  endloop
 endfacet
 facet normal 0.47531876197896761 0.64046022433494365 -0.60322696852479585
  outer loop
   vertex -152.8125 -134.54191589355469 91.5
   vertex -152.8125 -135 91.013641357421875
   vertex -153.45848083496094 -134.0625 91.5
  endloop
 endfacet
 facet normal 0.46888449418718364 0.63179047905453445 0.61724235247337855
  outer loop
   vertex -152.8125 -134.54191589355469 91.5
   vertex -153.45848083496094 -134.0625 91.5
   vertex -153.75 -134.0625 91.721450805664062
  endloop
 endfacet
 facet normal 0.34172039852370067 0.82514765088413822 0.44984277639325443
  outer loop
   vertex -153.75 -134.0625 91.721450805664062
   vertex -153.45848083496094 -134.0625 91.5
   vertex -153.75 -133.9417724609375 91.5
  endloop
 endfacet
 facet normal 0.64317249826990863 0.65171850579592638 -0.40198523190829949
  outer loop
   vertex -153.45848083496094 -134.0625 91.5
   vertex -152.8125 -135 91.013641357421875
   vertex -153.44602966308594 -135 90
  endloop
 endfacet
 facet normal 0.79421166673771215 -0.35047037193755065 -0.49638528061543086
  outer loop
   vertex -153.44602966308594 -135 90
   vertex -152.8125 -135 91.013641357421875
   vertex -153.75 -135.9375 90.175567626953125
  endloop
 endfacet
 facet normal 0.7678438570604823 -0.34950799672116684 -0.53689847401761026
  outer loop
   vertex -153.44602966308594 -135 90
   vertex -153.75 -135.9375 90.175567626953125
   vertex -153.75 -135.66780090332031 90
  endloop
 endfacet
 facet normal -0.80162666628625978 -0.32615130579749191 -0.50101897531467665
  outer loop
   vertex -153.75 -135.66780090332031 90
   vertex -153.75 -135.9375 90.175567626953125
   vertex -154.57777404785156 -135.9375 91.5
  endloop
 endfacet
 facet normal -0.47044063412191062 0.87454794769762423 -0.11769238269679276
  outer loop
   vertex -154.6875 -135 90.545639038085938
   vertex -154.6875 -134.87156677246094 91.5
   vertex -154.55099487304688 -135 90
  endloop
 endfacet
 facet normal -0.72812229808635021 0.6741410304519756 -0.12398302339675667
  outer loop
   vertex -154.55099487304688 -135 90
   vertex -154.6875 -134.87156677246094 91.5
   vertex -153.93841552734375 -134.0625 91.5
  endloop
 endfacet
 facet normal -0.88602858579152644 0.45948850861114565 -0.061835714717083906
  outer loop
   vertex -154.6875 -134.87156677246094 91.5
   vertex -154.6875 -135 90.545639038085938
   vertex -154.75410461425781 -135 91.5
  endloop
 endfacet
 facet normal -0.98396433537679506 -0.16461631688780462 -0.068670626331756496
  outer loop
   vertex -154.75410461425781 -135 91.5
   vertex -154.6875 -135 90.545639038085938
   vertex -154.6875 -135.39811706542969 91.5
  endloop
 endfacet
 facet normal -0.90842646248088166 -0.15197890110494225 0.38944033674416112
  outer loop
   vertex -154.75410461425781 -135 91.5
   vertex -154.6875 -135.39811706542969 91.5
   vertex -154.6875 -135 91.655364990234375
  endloop
 endfacet
 facet normal 0.92140618308351341 0.018826023649547993 -0.38814459497591564
  outer loop
   vertex -152.60762023925781 -135 91.5
   vertex -152.8125 -135.9375 90.968170166015625
   vertex -152.8125 -135 91.013641357421875
  endloop
 endfacet
 facet normal 0.64518329842735689 0.037013826992790766 -0.76313071491176665
  outer loop
   vertex -152.8125 -135 91.013641357421875
   vertex -152.8125 -135.9375 90.968170166015625
   vertex -153.75 -135.9375 90.175567626953125
  endloop
 endfacet
 facet normal 0.89657829472743034 0.053467820180359775 -0.4396459412172638
  outer loop
   vertex -152.60762023925781 -135 91.5
   vertex -152.55171203613281 -135.9375 91.5
   vertex -152.8125 -135.9375 90.968170166015625
  endloop
 endfacet
 facet normal 0.87019554814794808 -0.24633152433742847 -0.42670890323625926
  outer loop
   vertex -152.8125 -135.9375 90.968170166015625
   vertex -152.55171203613281 -135.9375 91.5
   vertex -152.8125 -136.8587646484375 91.5
  endloop
 endfacet
 facet normal 0.19098047114168137 -0.49075362229534253 -0.8501101939434097
  outer loop
   vertex -152.8125 -135.9375 90.968170166015625
   vertex -152.8125 -136.8587646484375 91.5
   vertex -153.75 -136.875 91.298759460449219
  endloop
 endfacet
 facet normal 0.18873571650402438 -0.51210527589014887 -0.83793019740380936
  outer loop
   vertex -153.75 -136.875 91.298759460449219
   vertex -152.8125 -136.8587646484375 91.5
   vertex -152.85655212402344 -136.875 91.5
  endloop
 endfacet
 facet normal 0.12281276590578734 -0.82922692367176731 -0.54525199090734855
  outer loop
   vertex -153.75 -136.875 91.298759460449219
   vertex -152.85655212402344 -136.875 91.5
   vertex -153.75 -137.00732421875 91.5
  endloop
 endfacet
 facet normal 0.12970280916337812 -0.87574822243349626 -0.46501852887782869
  outer loop
   vertex -153.75 -137.00732421875 91.5
   vertex -152.85655212402344 -136.875 91.5
   vertex -153.75 -137.80381774902344 93
  endloop
 endfacet
 facet normal -0.87435512956974926 -0.42860939874869397 -0.22758974207848182
  outer loop
   vertex -153.75 -137.00732421875 91.5
   vertex -153.75 -137.80381774902344 93
   vertex -154.20530700683594 -136.875 93
  endloop
 endfacet
 facet normal -0.89711240025206285 -0.43976502622137476 -0.042379983795371667
  outer loop
   vertex -154.20530700683594 -136.875 93
   vertex -153.75 -137.80381774902344 93
   vertex -153.81660461425781 -137.8125 94.5
  endloop
 endfacet
 facet normal -0.97141457381765905 -0.20120803819016161 0.12597242214993815
  outer loop
   vertex -154.20530700683594 -136.875 93
   vertex -153.81660461425781 -137.8125 94.5
   vertex -154.01078796386719 -136.875 94.5
  endloop
 endfacet
 facet normal -0.93098434316265855 -0.19283376873515615 0.30997304789511859
  outer loop
   vertex -154.01078796386719 -136.875 94.5
   vertex -153.81660461425781 -137.8125 94.5
   vertex -153.75 -137.8125 94.700042724609375
  endloop
 endfacet
 facet normal -0.89320973083384325 -0.15869837651620264 0.4207032232285069
  outer loop
   vertex -154.01078796386719 -136.875 94.5
   vertex -153.75 -137.8125 94.700042724609375
   vertex -153.75 -136.875 95.053688049316406
  endloop
 endfacet
 facet normal -0.69680343348736706 -0.25315422853061531 0.67110201285444326
  outer loop
   vertex -153.75 -136.875 95.053688049316406
   vertex -153.75 -137.8125 94.700042724609375
   vertex -152.83859252929688 -136.875 96
  endloop
 endfacet
 facet normal -0.5182302303012043 0.69449349045067343 0.49911543767309119
  outer loop
   vertex -153.75 -136.875 95.053688049316406
   vertex -152.83859252929688 -136.875 96
   vertex -152.8125 -136.85552978515625 96
  endloop
 endfacet
 facet normal -0.55755871208834829 0.74719858751651691 0.36169400518629574
  outer loop
   vertex -152.8125 -136.85552978515625 96
   vertex -152.83859252929688 -136.875 96
   vertex -152.8125 -136.875 96.04022216796875
  endloop
 endfacet
 facet normal 0.31619019203707127 0.85391175686500598 0.41335030415771912
  outer loop
   vertex -152.8125 -136.85552978515625 96
   vertex -152.8125 -136.875 96.04022216796875
   vertex -152.75991821289062 -136.875 96
  endloop
 endfacet
 facet normal 0.3343905875977693 0.83491831649136927 0.43714338575945105
  outer loop
   vertex -152.75991821289062 -136.875 96
   vertex -152.8125 -136.875 96.04022216796875
   vertex -151.875 -137.22941589355469 96
  endloop
 endfacet
 facet normal 0.34002480623992609 0.84898603405856432 -0.40448219381699752
  outer loop
   vertex -152.75991821289062 -136.875 96
   vertex -151.875 -137.22941589355469 96
   vertex -151.875 -137.8125 94.776138305664062
  endloop
 endfacet
 facet normal 0.79623258678150521 0.5461714224142783 -0.26021230771275344
  outer loop
   vertex -151.875 -137.8125 94.776138305664062
   vertex -151.875 -137.22941589355469 96
   vertex -151.47503662109375 -137.8125 96
  endloop
 endfacet
 facet normal 0.89945484788104157 -0.32338343424295779 -0.29394579616065758
  outer loop
   vertex -151.875 -137.8125 94.776138305664062
   vertex -151.47503662109375 -137.8125 96
   vertex -151.875 -138.75 95.807525634765625
  endloop
 endfacet
 facet normal 0.886684141464539 -0.30736651765806883 -0.34542301182469831
  outer loop
   vertex -151.875 -138.75 95.807525634765625
   vertex -151.47503662109375 -137.8125 96
   vertex -151.80001831054688 -138.75 96
  endloop
 endfacet
 facet normal 0.65489584199103312 -0.71135238009370838 -0.25512590514856004
  outer loop
   vertex -151.875 -138.75 95.807525634765625
   vertex -151.80001831054688 -138.75 96
   vertex -151.875 -138.81903076171875 96
  endloop
 endfacet
 facet normal 0.67496402821206236 -0.73315058236827457 -0.083149168322996958
  outer loop
   vertex -151.875 -138.81903076171875 96
   vertex -151.80001831054688 -138.75 96
   vertex -151.875 -138.98915100097656 97.5
  endloop
 endfacet
 facet normal 0.085016478374004056 -0.99003268220220042 -0.11228306451286145
  outer loop
   vertex -151.875 -138.81903076171875 96
   vertex -151.875 -138.98915100097656 97.5
   vertex -152.8125 -138.8995361328125 96
  endloop
 endfacet
 facet normal -0.27847028138142627 -0.9532805466061165 0.11709185219174303
  outer loop
   vertex -152.8125 -138.8995361328125 96
   vertex -151.875 -138.98915100097656 97.5
   vertex -152.69367980957031 -138.75 97.5
  endloop
 endfacet
 facet normal -0.29923332758093901 -0.94684371299751713 0.1180948721237024
  outer loop
   vertex -152.8125 -138.8995361328125 96
   vertex -152.69367980957031 -138.75 97.5
   vertex -152.8125 -138.75 97.198928833007812
  endloop
 endfacet
 facet normal -0.84995386417562258 -0.40627283410076565 0.33544122144521682
  outer loop
   vertex -152.8125 -138.75 97.198928833007812
   vertex -152.69367980957031 -138.75 97.5
   vertex -152.8125 -138.50141906738281 97.5
  endloop
 endfacet
 facet normal -0.98107128204407501 -0.14932605041544406 0.12329180919963503
  outer loop
   vertex -152.8125 -138.75 97.198928833007812
   vertex -152.8125 -138.50141906738281 97.5
   vertex -152.9173583984375 -137.8125 97.5
  endloop
 endfacet
 facet normal -0.89536766744064133 -0.13628134866003869 0.4239624206333692
  outer loop
   vertex -152.9173583984375 -137.8125 97.5
   vertex -152.8125 -138.50141906738281 97.5
   vertex -152.8125 -137.8125 97.721450805664062
  endloop
 endfacet
 facet normal -0.77387513188360146 0.51656822790714996 0.36643491396018119
  outer loop
   vertex -152.9173583984375 -137.8125 97.5
   vertex -152.8125 -137.8125 97.721450805664062
   vertex -152.8125 -137.65541076660156 97.5
  endloop
 endfacet
 facet normal -0.65611764248675453 0.61552053224393932 0.43662811820101671
  outer loop
   vertex -152.8125 -137.65541076660156 97.5
   vertex -152.8125 -137.8125 97.721450805664062
   vertex -151.875 -137.72012329101562 99
  endloop
 endfacet
 facet normal -0.51692355458820949 0.77819717715131809 0.35664995750120376
  outer loop
   vertex -152.8125 -137.65541076660156 97.5
   vertex -151.875 -137.72012329101562 99
   vertex -151.875 -137.03266906738281 97.5
  endloop
 endfacet
 facet normal 0.4274632798664777 0.82183383656151665 0.37664876137904879
  outer loop
   vertex -151.875 -137.03266906738281 97.5
   vertex -151.875 -137.72012329101562 99
   vertex -150.9375 -137.52029418945312 97.5
  endloop
 endfacet
 facet normal 0.45835313232834046 0.88122215634299961 -0.115585108275214
  outer loop
   vertex -151.875 -137.03266906738281 97.5
   vertex -150.9375 -137.52029418945312 97.5
   vertex -151.875 -137.22941589355469 96
  endloop
 endfacet
 facet normal 0.79875367709856604 0.43592032603058828 -0.4146878737977579
  outer loop
   vertex -151.875 -137.22941589355469 96
   vertex -150.9375 -137.52029418945312 97.5
   vertex -150.9375 -137.8125 97.192832946777344
  endloop
 endfacet
 facet normal 0.77299163873133092 0.53022942020845376 -0.34833990353799338
  outer loop
   vertex -151.875 -137.22941589355469 96
   vertex -150.9375 -137.8125 97.192832946777344
   vertex -151.47503662109375 -137.8125 96
  endloop
 endfacet
 facet normal 0.84561460158761403 -0.37379697562096004 -0.38106661700868538
  outer loop
   vertex -151.47503662109375 -137.8125 96
   vertex -150.9375 -137.8125 97.192832946777344
   vertex -150.9375 -138.12564086914062 97.5
  endloop
 endfacet
 facet normal 0.7328609359734255 -0.56410841290920888 -0.38038999330845757
  outer loop
   vertex -151.47503662109375 -137.8125 96
   vertex -150.9375 -138.12564086914062 97.5
   vertex -151.4180908203125 -138.75 97.5
  endloop
 endfacet
 facet normal 0.76945990283761656 -0.59227990370432504 0.23903132345598796
  outer loop
   vertex -151.4180908203125 -138.75 97.5
   vertex -150.9375 -138.12564086914062 97.5
   vertex -151.875 -138.75 98.9708251953125
  endloop
 endfacet
 facet normal 0.45899135156479298 -0.8769244580652179 0.14258483101560462
  outer loop
   vertex -151.4180908203125 -138.75 97.5
   vertex -151.875 -138.75 98.9708251953125
   vertex -151.875 -138.98915100097656 97.5
  endloop
 endfacet
 facet normal -0.27704515329431251 -0.94840194026030433 0.15420681809382261
  outer loop
   vertex -151.875 -138.98915100097656 97.5
   vertex -151.875 -138.75 98.9708251953125
   vertex -152.69367980957031 -138.75 97.5
  endloop
 endfacet
 facet normal -0.83851838997088135 -0.50287262263020394 -0.20977615472131506
  outer loop
   vertex -154.55099487304688 -135 90
   vertex -154.6875 -135.39811706542969 91.5
   vertex -154.6875 -135 90.545639038085938
  endloop
 endfacet
 facet normal 0.47634179714464914 -0.67502082082471604 -0.56342291730646932
  outer loop
   vertex -152.8125 -135.9375 90.968170166015625
   vertex -153.75 -136.875 91.298759460449219
   vertex -153.75 -135.9375 90.175567626953125
  endloop
 endfacet
 facet normal -0.70082166610788343 -0.54763880609002702 -0.4571003504462231
  outer loop
   vertex -153.75 -135.9375 90.175567626953125
   vertex -153.75 -136.875 91.298759460449219
   vertex -153.88125610351562 -136.875 91.5
  endloop
 endfacet
 facet normal -0.71747624689907885 -0.53305075264001056 -0.44842472082338453
  outer loop
   vertex -153.75 -135.9375 90.175567626953125
   vertex -153.88125610351562 -136.875 91.5
   vertex -154.57777404785156 -135.9375 91.5
  endloop
 endfacet
 facet normal -0.79430207999752556 -0.5901286954044116 0.14433408665970662
  outer loop
   vertex -154.57777404785156 -135.9375 91.5
   vertex -153.88125610351562 -136.875 91.5
   vertex -154.30520629882812 -135.9375 93
  endloop
 endfacet
 facet normal -0.92652742343145944 0.33645431875291815 0.16836099614213215
  outer loop
   vertex -154.57777404785156 -135.9375 91.5
   vertex -154.30520629882812 -135.9375 93
   vertex -153.96476745605469 -135 93
  endloop
 endfacet
 facet normal -0.88695641692422167 0.322084710579367 0.33101322282946888
  outer loop
   vertex -153.96476745605469 -135 93
   vertex -154.30520629882812 -135.9375 93
   vertex -153.75 -135.9375 94.487686157226562
  endloop
 endfacet
 facet normal -0.67653973981478588 0.5750307298307259 0.46003656398343451
  outer loop
   vertex -153.96476745605469 -135 93
   vertex -153.75 -135.9375 94.487686157226562
   vertex -153.75 -135 93.315841674804688
  endloop
 endfacet
 facet normal 0.11575399517027177 0.77561185892653939 0.6205056461424332
  outer loop
   vertex -153.75 -135 93.315841674804688
   vertex -153.75 -135.9375 94.487686157226562
   vertex -152.8125 -135 93.140953063964844
  endloop
 endfacet
 facet normal 0.098385124876348207 0.84390213065819641 0.52739886336019137
  outer loop
   vertex -153.75 -135 93.315841674804688
   vertex -152.8125 -135 93.140953063964844
   vertex -152.8125 -134.91191101074219 93
  endloop
 endfacet
 facet normal 0.72173887621961086 0.58696761196103808 0.36682695792704445
  outer loop
   vertex -152.8125 -134.91191101074219 93
   vertex -152.8125 -135 93.140953063964844
   vertex -152.74085998535156 -135 93
  endloop
 endfacet
 facet normal 0.76659356633185127 0.62344652588394978 0.15378144693638116
  outer loop
   vertex -152.8125 -134.91191101074219 93
   vertex -152.74085998535156 -135 93
   vertex -152.8125 -134.54191589355469 91.5
  endloop
 endfacet
 facet normal 0.90987105581301408 0.40694309537994539 0.080820658969718823
  outer loop
   vertex -152.8125 -134.54191589355469 91.5
   vertex -152.74085998535156 -135 93
   vertex -152.60762023925781 -135 91.5
  endloop
 endfacet
 facet normal -0.64424597000814854 -0.63904564506573958 -0.42019970686659541
  outer loop
   vertex -153.75 -136.875 91.298759460449219
   vertex -153.75 -137.00732421875 91.5
   vertex -153.88125610351562 -136.875 91.5
  endloop
 endfacet
 facet normal -0.70176010437830594 -0.69609552789001239 -0.15160399715863121
  outer loop
   vertex -153.88125610351562 -136.875 91.5
   vertex -153.75 -137.00732421875 91.5
   vertex -154.20530700683594 -136.875 93
  endloop
 endfacet
 facet normal -0.97219173702560036 -0.10359601729014657 -0.21002640705579301
  outer loop
   vertex -153.88125610351562 -136.875 91.5
   vertex -154.20530700683594 -136.875 93
   vertex -154.30520629882812 -135.9375 93
  endloop
 endfacet
 facet normal -0.9862049911216404 -0.10508925906369433 0.12789043402932407
  outer loop
   vertex -154.30520629882812 -135.9375 93
   vertex -154.20530700683594 -136.875 93
   vertex -154.01078796386719 -136.875 94.5
  endloop
 endfacet
 facet normal -0.90557595408132474 0.25634687013389296 0.3379622368878738
  outer loop
   vertex -154.30520629882812 -135.9375 93
   vertex -154.01078796386719 -136.875 94.5
   vertex -153.75 -135.9537353515625 94.5
  endloop
 endfacet
 facet normal -0.87639269456058766 0.24808578810678092 0.41278237203188528
  outer loop
   vertex -153.75 -135.9537353515625 94.5
   vertex -154.01078796386719 -136.875 94.5
   vertex -153.75 -136.875 95.053688049316406
  endloop
 endfacet
 facet normal -0.65887348395787926 0.38750947117916218 0.64476518352315859
  outer loop
   vertex -153.75 -135.9537353515625 94.5
   vertex -153.75 -136.875 95.053688049316406
   vertex -152.8125 -136.85552978515625 96
  endloop
 endfacet
 facet normal 0.12149182709517629 0.98880088180257408 -0.086674979639615693
  outer loop
   vertex -140.625 -128.22781372070312 93
   vertex -141.5625 -128.24411010742188 91.5
   vertex -141.5625 -128.11262512207031 93
  endloop
 endfacet
 facet normal 0.10622869576906997 0.99054349188824697 -0.086827731014007814
  outer loop
   vertex -141.5625 -128.11262512207031 93
   vertex -141.5625 -128.24411010742188 91.5
   vertex -142.5 -128.0120849609375 93
  endloop
 endfacet
 facet normal 0.099742593115457814 0.93006297177321717 0.35360187167911872
  outer loop
   vertex -141.5625 -128.11262512207031 93
   vertex -142.5 -128.0120849609375 93
   vertex -142.5 -128.4375 94.118949890136719
  endloop
 endfacet
 facet normal -0.34760672664755649 0.87643518088363948 0.33321305091312559
  outer loop
   vertex -142.5 -128.4375 94.118949890136719
   vertex -142.5 -128.0120849609375 93
   vertex -143.4375 -128.4375 93.140953063964844
  endloop
 endfacet
 facet normal -0.70991244649808316 0.18144336041296144 0.6805164401167384
  outer loop
   vertex -142.5 -128.4375 94.118949890136719
   vertex -143.4375 -128.4375 93.140953063964844
   vertex -143.4375 -129.375 93.390914916992188
  endloop
 endfacet
 facet normal -0.83967499177553184 0.13991387471521774 0.52475710176131474
  outer loop
   vertex -143.4375 -129.375 93.390914916992188
   vertex -143.4375 -128.4375 93.140953063964844
   vertex -143.52558898925781 -128.4375 93
  endloop
 endfacet
 facet normal -0.77800707892361654 0.17811600866112615 0.60247794366546814
  outer loop
   vertex -143.4375 -129.375 93.390914916992188
   vertex -143.52558898925781 -128.4375 93
   vertex -143.74021911621094 -129.375 93
  endloop
 endfacet
 facet normal 0.21462181196543006 0.97655070185558945 -0.016917580619914437
  outer loop
   vertex -141.5625 -128.24411010742188 91.5
   vertex -142.5 -128.03807067871094 91.5
   vertex -142.5 -128.0120849609375 93
  endloop
 endfacet
 facet normal -0.34738185513760816 0.93758307765131998 -0.016242512829998758
  outer loop
   vertex -142.5 -128.0120849609375 93
   vertex -142.5 -128.03807067871094 91.5
   vertex -143.4375 -128.35943603515625 93
  endloop
 endfacet
 facet normal -0.30832823659224839 0.83217742295851971 0.46088440550536258
  outer loop
   vertex -142.5 -128.0120849609375 93
   vertex -143.4375 -128.35943603515625 93
   vertex -143.4375 -128.4375 93.140953063964844
  endloop
 endfacet
 facet normal -0.61269047274211053 0.69137257606337066 0.3829025276471128
  outer loop
   vertex -143.4375 -128.4375 93.140953063964844
   vertex -143.4375 -128.35943603515625 93
   vertex -143.52558898925781 -128.4375 93
  endloop
 endfacet
 facet normal 0.61513088443314867 -0.7284433769334091 -0.30163594218584699
  outer loop
   vertex -140.625 -128.4375 91.906967163085938
   vertex -140.08901977539062 -128.4375 93
   vertex -140.625 -128.89010620117188 93
  endloop
 endfacet
 facet normal 0.46953980383416183 -0.82005449982234624 0.32717425011222756
  outer loop
   vertex -141.5625 -129.375 92.25
   vertex -141.03990173339844 -129.375 91.5
   vertex -141.5625 -129.07577514648438 93
  endloop
 endfacet
 facet normal 0.48937367749365618 0.75687097669015224 0.43319710112191434
  outer loop
   vertex -153.75 -134.0625 91.721450805664062
   vertex -153.75 -134.79428100585938 93
   vertex -152.8125 -134.54191589355469 91.5
  endloop
 endfacet
 facet normal 0.12092677256039989 0.96377492620456218 0.23772801117562076
  outer loop
   vertex -152.8125 -134.54191589355469 91.5
   vertex -153.75 -134.79428100585938 93
   vertex -152.8125 -134.91191101074219 93
  endloop
 endfacet
 facet normal -0.82967676796035827 0.43026483214292072 0.35568052368365388
  outer loop
   vertex -154.6875 -134.87156677246094 91.5
   vertex -154.75410461425781 -135 91.5
   vertex -154.6875 -135 91.655364990234375
  endloop
 endfacet
 facet normal 0.99432540483084908 0.059297009819339698 0.088322442982818342
  outer loop
   vertex -152.60762023925781 -135 91.5
   vertex -152.74085998535156 -135 93
   vertex -152.55171203613281 -135.9375 91.5
  endloop
 endfacet
 facet normal 0.93490002362933167 0.34176195525251934 -0.095711607236791937
  outer loop
   vertex -152.55171203613281 -135.9375 91.5
   vertex -152.74085998535156 -135 93
   vertex -152.39814758300781 -135.9375 93
  endloop
 endfacet
 facet normal 0.99386233374199917 0.043416772522192802 -0.10174795050841756
  outer loop
   vertex -152.55171203613281 -135.9375 91.5
   vertex -152.39814758300781 -135.9375 93
   vertex -152.35719299316406 -136.875 93
  endloop
 endfacet
 facet normal 0.96901954313629401 0.042331517802373257 0.24332933982665422
  outer loop
   vertex -152.35719299316406 -136.875 93
   vertex -152.39814758300781 -135.9375 93
   vertex -152.77481079101562 -135.9375 94.5
  endloop
 endfacet
 facet normal 0.89123890053219434 0.45221960813950457 -0.0345057704205885
  outer loop
   vertex -152.35719299316406 -136.875 93
   vertex -152.77481079101562 -135.9375 94.5
   vertex -152.29911804199219 -136.875 94.5
  endloop
 endfacet
 facet normal 0.86007947181900857 0.43640913955009103 0.26421651173362465
  outer loop
   vertex -152.29911804199219 -136.875 94.5
   vertex -152.77481079101562 -135.9375 94.5
   vertex -152.75991821289062 -136.875 96
  endloop
 endfacet
 facet normal 0.91484174552075515 0.28996790612420548 0.28103948845399257
  outer loop
   vertex -152.29911804199219 -136.875 94.5
   vertex -152.75991821289062 -136.875 96
   vertex -152.00196838378906 -137.8125 94.5
  endloop
 endfacet
 facet normal 0.52735066137610465 0.81431367316427827 -0.24247581661659762
  outer loop
   vertex -152.00196838378906 -137.8125 94.5
   vertex -152.75991821289062 -136.875 96
   vertex -151.875 -137.8125 94.776138305664062
  endloop
 endfacet
 facet normal 0.61574070687593807 -0.73532838313019777 -0.28311755660687854
  outer loop
   vertex -152.00196838378906 -137.8125 94.5
   vertex -151.875 -137.8125 94.776138305664062
   vertex -152.8125 -138.75 95.172134399414062
  endloop
 endfacet
 facet normal 0.41480243450801929 -0.6733205483946243 -0.61202808712981693
  outer loop
   vertex -152.8125 -138.75 95.172134399414062
   vertex -151.875 -137.8125 94.776138305664062
   vertex -151.875 -138.75 95.807525634765625
  endloop
 endfacet
 facet normal 0.22304047731984752 -0.91758007161200406 -0.32908928523646003
  outer loop
   vertex -152.8125 -138.75 95.172134399414062
   vertex -151.875 -138.75 95.807525634765625
   vertex -151.875 -138.81903076171875 96
  endloop
 endfacet
 facet normal 0.91686788350102355 -0.25954334498668336 -0.303299416876256
  outer loop
   vertex -152.55171203613281 -135.9375 91.5
   vertex -152.8125 -136.875 91.513893127441406
   vertex -152.8125 -136.8587646484375 91.5
  endloop
 endfacet
 facet normal 0.23302411748910581 -0.63227502555549675 -0.7388694422746277
  outer loop
   vertex -152.8125 -136.8587646484375 91.5
   vertex -152.8125 -136.875 91.513893127441406
   vertex -152.85655212402344 -136.875 91.5
  endloop
 endfacet
 facet normal 0.92300527220080719 -0.26094661616180281 -0.28278636990353451
  outer loop
   vertex -152.55171203613281 -135.9375 91.5
   vertex -152.35719299316406 -136.875 93
   vertex -152.8125 -136.875 91.513893127441406
  endloop
 endfacet
 facet normal 0.88829602797206908 -0.36995039054341311 -0.27215230152585718
  outer loop
   vertex -152.8125 -136.875 91.513893127441406
   vertex -152.35719299316406 -136.875 93
   vertex -152.8125 -137.8125 92.788284301757812
  endloop
 endfacet
 facet normal 0.18370506622617111 -0.79180719894441576 -0.58248932036788137
  outer loop
   vertex -152.8125 -136.875 91.513893127441406
   vertex -152.8125 -137.8125 92.788284301757812
   vertex -152.85655212402344 -136.875 91.5
  endloop
 endfacet
 facet normal -0.13833925829789623 -0.80303722663482291 -0.57964943047693918
  outer loop
   vertex -152.85655212402344 -136.875 91.5
   vertex -152.8125 -137.8125 92.788284301757812
   vertex -153.75 -137.80381774902344 93
  endloop
 endfacet
 facet normal 0.8154555798358305 -0.28186572508094943 -0.50555307371155411
  outer loop
   vertex -152.35719299316406 -136.875 93
   vertex -152.68124389648438 -137.8125 93
   vertex -152.8125 -137.8125 92.788284301757812
  endloop
 endfacet
 facet normal 0.6358529013788059 -0.66354563358734542 -0.39420588523679195
  outer loop
   vertex -152.8125 -137.8125 92.788284301757812
   vertex -152.68124389648438 -137.8125 93
   vertex -152.8125 -137.93827819824219 93
  endloop
 endfacet
 facet normal -0.12015409777364713 -0.85349786327069765 -0.50705462248218813
  outer loop
   vertex -152.8125 -137.8125 92.788284301757812
   vertex -152.8125 -137.93827819824219 93
   vertex -153.70594787597656 -137.8125 93
  endloop
 endfacet
 facet normal -0.1391819024417445 -0.98865921796329803 -0.056403446427472817
  outer loop
   vertex -153.70594787597656 -137.8125 93
   vertex -152.8125 -137.93827819824219 93
   vertex -153.75 -137.8125 93.10870361328125
  endloop
 endfacet
 facet normal -0.19277947784745869 -0.97812715737366118 -0.078123856337115841
  outer loop
   vertex -153.70594787597656 -137.8125 93
   vertex -153.75 -137.8125 93.10870361328125
   vertex -153.75 -137.80381774902344 93
  endloop
 endfacet
 facet normal -0.8570083760966164 -0.51366665147712165 -0.041026996728029508
  outer loop
   vertex -153.75 -137.80381774902344 93
   vertex -153.75 -137.8125 93.10870361328125
   vertex -153.81660461425781 -137.8125 94.5
  endloop
 endfacet
 facet normal -0.14981834167660682 -0.76015035574756395 -0.63223880073444028
  outer loop
   vertex -153.75 -137.80381774902344 93
   vertex -152.8125 -137.8125 92.788284301757812
   vertex -153.70594787597656 -137.8125 93
  endloop
 endfacet
 facet normal 0.11618556670884463 0.94561415003197957 0.30383349609258303
  outer loop
   vertex -140.625 -128.22781372070312 93
   vertex -141.5625 -128.11262512207031 93
   vertex -141.5625 -128.4375 94.011100769042969
  endloop
 endfacet
 facet normal 0.035169280843789785 0.95147299243871097 0.3057159896777652
  outer loop
   vertex -141.5625 -128.4375 94.011100769042969
   vertex -141.5625 -128.11262512207031 93
   vertex -142.5 -128.4375 94.118949890136719
  endloop
 endfacet
 facet normal 0.09695020813918169 -0.52948832194179718 0.84275902491105303
  outer loop
   vertex -141.5625 -128.4375 94.011100769042969
   vertex -142.5 -128.4375 94.118949890136719
   vertex -142.5 -129.375 93.529937744140625
  endloop
 endfacet
 facet normal -0.12458678610489188 -0.52784950321896429 0.84015060238004136
  outer loop
   vertex -142.5 -129.375 93.529937744140625
   vertex -142.5 -128.4375 94.118949890136719
   vertex -143.4375 -129.375 93.390914916992188
  endloop
 endfacet
 facet normal -0.11222648544255316 -0.64394142583363767 0.75679895352765514
  outer loop
   vertex -142.5 -129.375 93.529937744140625
   vertex -143.4375 -129.375 93.390914916992188
   vertex -143.4375 -129.83442687988281 93
  endloop
 endfacet
 facet normal -0.7012010560852856 -0.46202556550121165 0.54300041967586488
  outer loop
   vertex -143.4375 -129.83442687988281 93
   vertex -143.4375 -129.375 93.390914916992188
   vertex -143.74021911621094 -129.375 93
  endloop
 endfacet
 facet normal 0.43982147626543305 -0.71722822952978382 0.54050044938118869
  outer loop
   vertex -141.5625 -128.4375 94.011100769042969
   vertex -142.5 -129.375 93.529937744140625
   vertex -141.8487548828125 -129.375 93
  endloop
 endfacet
 facet normal 0.43130250994457053 -0.73009919979511639 0.53003141734622139
  outer loop
   vertex -141.8487548828125 -129.375 93
   vertex -142.5 -129.375 93.529937744140625
   vertex -142.5 -129.75971984863281 93
  endloop
 endfacet
 facet normal 0.064352374889883296 -0.80755921430441779 0.58626520213813083
  outer loop
   vertex -143.4375 -129.83442687988281 93
   vertex -142.5 -129.75971984863281 93
   vertex -142.5 -129.375 93.529937744140625
  endloop
 endfacet
 facet normal 0.10456067361024604 0.83333866735160411 0.54278331867405805
  outer loop
   vertex -152.8125 -134.91191101074219 93
   vertex -153.75 -134.79428100585938 93
   vertex -153.75 -135 93.315841674804688
  endloop
 endfacet
 facet normal -0.62594418093719095 0.65347606784534662 0.42563236613802424
  outer loop
   vertex -153.75 -135 93.315841674804688
   vertex -153.75 -134.79428100585938 93
   vertex -153.96476745605469 -135 93
  endloop
 endfacet
 facet normal 0.72022894990626662 0.58022358325782086 0.38027733714799655
  outer loop
   vertex -152.77481079101562 -135.9375 94.5
   vertex -152.8125 -135 93.140953063964844
   vertex -152.8125 -135.89071655273438 94.5
  endloop
 endfacet
 facet normal -0.048878492532857934 0.83537496418640422 0.54750302481199054
  outer loop
   vertex -152.8125 -135.89071655273438 94.5
   vertex -152.8125 -135 93.140953063964844
   vertex -153.75 -135.9375 94.487686157226562
  endloop
 endfacet
 facet normal -0.04963252032435319 0.86165681403283489 0.50505855874050609
  outer loop
   vertex -152.8125 -135.89071655273438 94.5
   vertex -153.75 -135.9375 94.487686157226562
   vertex -153.62469482421875 -135.9375 94.5
  endloop
 endfacet
 facet normal -0.078058711271811299 0.60246065504146085 0.79432235063706857
  outer loop
   vertex -153.62469482421875 -135.9375 94.5
   vertex -153.75 -135.9375 94.487686157226562
   vertex -153.75 -135.9537353515625 94.5
  endloop
 endfacet
 facet normal -0.07211654849809615 0.55659877468643382 0.82764545999496808
  outer loop
   vertex -153.62469482421875 -135.9375 94.5
   vertex -153.75 -135.9537353515625 94.5
   vertex -152.8125 -135.9375 94.570770263671875
  endloop
 endfacet
 facet normal -0.055283074091378281 0.8400954261220519 0.53961417395006872
  outer loop
   vertex -152.8125 -135.9375 94.570770263671875
   vertex -153.75 -135.9537353515625 94.5
   vertex -152.8125 -136.85552978515625 96
  endloop
 endfacet
 facet normal 0.29744915596255989 0.80329920959794776 0.51597904945498829
  outer loop
   vertex -152.8125 -135.9375 94.570770263671875
   vertex -152.8125 -136.85552978515625 96
   vertex -152.75991821289062 -136.875 96
  endloop
 endfacet
 facet normal 0.73283372750458764 0.56940656198651574 0.37246596488595823
  outer loop
   vertex -152.8125 -135 93.140953063964844
   vertex -152.77481079101562 -135.9375 94.5
   vertex -152.74085998535156 -135 93
  endloop
 endfacet
 facet normal 0.91413266710064101 0.33417024256315747 0.22954676195657675
  outer loop
   vertex -152.74085998535156 -135 93
   vertex -152.77481079101562 -135.9375 94.5
   vertex -152.39814758300781 -135.9375 93
  endloop
 endfacet
 facet normal -0.90557986859971618 0.25633135234686905 0.33796351784023382
  outer loop
   vertex -153.75 -135.9537353515625 94.5
   vertex -153.75 -135.9375 94.487686157226562
   vertex -154.30520629882812 -135.9375 93
  endloop
 endfacet
 facet normal 0.94449979457945699 -0.32647041239394414 -0.036567852968031951
  outer loop
   vertex -152.35719299316406 -136.875 93
   vertex -152.29911804199219 -136.875 94.5
   vertex -152.68124389648438 -137.8125 93
  endloop
 endfacet
 facet normal 0.87519622126403596 0.27740187520989318 -0.39633290793875214
  outer loop
   vertex -152.68124389648438 -137.8125 93
   vertex -152.29911804199219 -136.875 94.5
   vertex -152.00196838378906 -137.8125 94.5
  endloop
 endfacet
 facet normal 0.65849313805273435 -0.69098787065097866 -0.2981988426380775
  outer loop
   vertex -152.68124389648438 -137.8125 93
   vertex -152.00196838378906 -137.8125 94.5
   vertex -152.8125 -138.58491516113281 94.5
  endloop
 endfacet
 facet normal 0.67922688071220227 -0.71274476356752081 -0.17505926575034639
  outer loop
   vertex -152.8125 -138.58491516113281 94.5
   vertex -152.00196838378906 -137.8125 94.5
   vertex -152.8125 -138.75 95.172134399414062
  endloop
 endfacet
 facet normal -0.76155978646901989 -0.6293885060820551 -0.15458589859705679
  outer loop
   vertex -152.8125 -138.58491516113281 94.5
   vertex -152.8125 -138.75 95.172134399414062
   vertex -152.98054504394531 -138.75 96
  endloop
 endfacet
 facet normal -0.65879717010965866 -0.74034012596098686 -0.13372653643752044
  outer loop
   vertex -152.98054504394531 -138.75 96
   vertex -152.8125 -138.75 95.172134399414062
   vertex -152.8125 -138.8995361328125 96
  endloop
 endfacet
 facet normal -0.66190093232350955 -0.74382805792640927 0.092773789567393516
  outer loop
   vertex -152.98054504394531 -138.75 96
   vertex -152.8125 -138.8995361328125 96
   vertex -152.8125 -138.75 97.198928833007812
  endloop
 endfacet
 facet normal 0.66061948807804449 -0.68939085726644889 -0.29719040679156061
  outer loop
   vertex -152.68124389648438 -137.8125 93
   vertex -152.8125 -138.58491516113281 94.5
   vertex -152.8125 -137.93827819824219 93
  endloop
 endfacet
 facet normal -0.55438228187213634 -0.76427059030726896 -0.32947040889527834
  outer loop
   vertex -152.8125 -137.93827819824219 93
   vertex -152.8125 -138.58491516113281 94.5
   vertex -153.75 -137.90487670898438 94.5
  endloop
 endfacet
 facet normal -0.14015328444754013 -0.98795454016516093 -0.065596367472690112
  outer loop
   vertex -152.8125 -137.93827819824219 93
   vertex -153.75 -137.90487670898438 94.5
   vertex -153.75 -137.8125 93.10870361328125
  endloop
 endfacet
 facet normal -0.8105344729292121 -0.5844041913339959 -0.038802182214696328
  outer loop
   vertex -153.75 -137.8125 93.10870361328125
   vertex -153.75 -137.90487670898438 94.5
   vertex -153.81660461425781 -137.8125 94.5
  endloop
 endfacet
 facet normal 0.71932684186133167 0.57949683607224045 0.38308264325086011
  outer loop
   vertex -152.77481079101562 -135.9375 94.5
   vertex -152.8125 -135.89071655273438 94.5
   vertex -152.8125 -135.9375 94.570770263671875
  endloop
 endfacet
 facet normal -0.047995731354782925 0.83324096169353734 0.55082293845458941
  outer loop
   vertex -152.8125 -135.9375 94.570770263671875
   vertex -152.8125 -135.89071655273438 94.5
   vertex -153.62469482421875 -135.9375 94.5
  endloop
 endfacet
 facet normal 0.70065526620075436 0.60815254065040425 0.37313896237944438
  outer loop
   vertex -152.8125 -135.9375 94.570770263671875
   vertex -152.75991821289062 -136.875 96
   vertex -152.77481079101562 -135.9375 94.5
  endloop
 endfacet
 facet normal -0.85230432851685567 0.44300681528622698 0.27806886413510346
  outer loop
   vertex -153.75 -137.8125 94.700042724609375
   vertex -153.32588195800781 -137.8125 96
   vertex -152.83859252929688 -136.875 96
  endloop
 endfacet
 facet normal -0.86247271720907703 0.44829209349075322 0.23489361631102113
  outer loop
   vertex -152.83859252929688 -136.875 96
   vertex -153.32588195800781 -137.8125 96
   vertex -152.9173583984375 -137.8125 97.5
  endloop
 endfacet
 facet normal -0.79591988122792612 0.53128328545879633 0.29025783927093396
  outer loop
   vertex -152.83859252929688 -136.875 96
   vertex -152.9173583984375 -137.8125 97.5
   vertex -152.8125 -137.65541076660156 97.5
  endloop
 endfacet
 facet normal -0.89725578162576403 -0.3305125789348029 0.29273451710552517
  outer loop
   vertex -153.32588195800781 -137.8125 96
   vertex -153.75 -137.8125 94.700042724609375
   vertex -152.98054504394531 -138.75 96
  endloop
 endfacet
 facet normal -0.64767961412443242 -0.74604905183249681 -0.15466715781787269
  outer loop
   vertex -152.98054504394531 -138.75 96
   vertex -153.75 -137.8125 94.700042724609375
   vertex -152.8125 -138.58491516113281 94.5
  endloop
 endfacet
 facet normal -0.54999761771783484 -0.75822589881714664 0.35013726860709427
  outer loop
   vertex -152.8125 -138.58491516113281 94.5
   vertex -153.75 -137.8125 94.700042724609375
   vertex -153.75 -137.90487670898438 94.5
  endloop
 endfacet
 facet normal -0.78308902549328041 -0.5646157245256308 0.26073101420886108
  outer loop
   vertex -153.75 -137.90487670898438 94.5
   vertex -153.75 -137.8125 94.700042724609375
   vertex -153.81660461425781 -137.8125 94.5
  endloop
 endfacet
 facet normal 0.084204782447425533 -0.98058033236729059 -0.17712076780387886
  outer loop
   vertex -152.8125 -138.8995361328125 96
   vertex -152.8125 -138.75 95.172134399414062
   vertex -151.875 -138.81903076171875 96
  endloop
 endfacet
 facet normal 0.77338581005742157 0.45930636124193502 -0.4369348410512931
  outer loop
   vertex -150.9375 -137.8125 97.192832946777344
   vertex -150.9375 -137.52029418945312 97.5
   vertex -150.76396179199219 -137.8125 97.5
  endloop
 endfacet
 facet normal 0.84507055818755616 0.50187924064057832 -0.18431760496113475
  outer loop
   vertex -150.76396179199219 -137.8125 97.5
   vertex -150.9375 -137.52029418945312 97.5
   vertex -150.43679809570312 -137.8125 99
  endloop
 endfacet
 facet normal 0.85917075541724874 -0.47614019108080935 -0.18739298672384877
  outer loop
   vertex -150.76396179199219 -137.8125 97.5
   vertex -150.43679809570312 -137.8125 99
   vertex -150.9375 -138.12564086914062 97.5
  endloop
 endfacet
 facet normal 0.82980461534187921 0.42205211299129392 -0.36509767772049717
  outer loop
   vertex -150.9375 -138.12564086914062 97.5
   vertex -150.43679809570312 -137.8125 99
   vertex -150 -138.75 98.909019470214844
  endloop
 endfacet
 facet normal 0.39531756563853127 -0.7130774438847427 -0.57900309266913863
  outer loop
   vertex -150.9375 -138.12564086914062 97.5
   vertex -150 -138.75 98.909019470214844
   vertex -150.9375 -138.75 98.268936157226562
  endloop
 endfacet
 facet normal 0.38814262689805945 -0.72536855186499483 -0.56849429649729488
  outer loop
   vertex -150.9375 -138.75 98.268936157226562
   vertex -150 -138.75 98.909019470214844
   vertex -150 -138.82130432128906 99
  endloop
 endfacet
 facet normal 0.22623514190442293 -0.89786752267991377 -0.37769243080067172
  outer loop
   vertex -150.9375 -138.75 98.268936157226562
   vertex -150 -138.82130432128906 99
   vertex -150.9375 -139.05752563476562 99
  endloop
 endfacet
 facet normal 0.23277514595546775 -0.92382307134577479 -0.30391884488242954
  outer loop
   vertex -150.9375 -139.05752563476562 99
   vertex -150 -138.82130432128906 99
   vertex -150.9375 -139.55099487304688 100.5
  endloop
 endfacet
 facet normal -0.94034757667261093 -0.32317618453062397 -0.10631833707397846
  outer loop
   vertex -150.9375 -139.05752563476562 99
   vertex -150.9375 -139.55099487304688 100.5
   vertex -151.21278381347656 -138.75 100.5
  endloop
 endfacet
 facet normal -0.8761589912764387 -0.30111602014741173 0.37639681775492867
  outer loop
   vertex -151.21278381347656 -138.75 100.5
   vertex -150.9375 -139.55099487304688 100.5
   vertex -150.9375 -138.75 101.14079284667969
  endloop
 endfacet
 facet normal -0.70627461403345171 0.63962152059522626 0.30341469964942264
  outer loop
   vertex -151.21278381347656 -138.75 100.5
   vertex -150.9375 -138.75 101.14079284667969
   vertex -150.9375 -138.44602966308594 100.5
  endloop
 endfacet
 facet normal 0.15136296991541159 0.89308949117477088 0.42365128595529489
  outer loop
   vertex -150.9375 -138.44602966308594 100.5
   vertex -150.9375 -138.75 101.14079284667969
   vertex -150 -138.60491943359375 100.5
  endloop
 endfacet
 facet normal 0.16705034836272462 0.98564999552538168 0.024254225048582951
  outer loop
   vertex -150.9375 -138.44602966308594 100.5
   vertex -150 -138.60491943359375 100.5
   vertex -150 -138.56800842285156 99
  endloop
 endfacet
 facet normal 0.75548342783771316 0.65496948839569513 0.016117057214652369
  outer loop
   vertex -150 -138.56800842285156 99
   vertex -150 -138.60491943359375 100.5
   vertex -149.87422180175781 -138.75 100.5
  endloop
 endfacet
 facet normal 0.92140381986902442 0.38742685978394881 -0.030256058049898386
  outer loop
   vertex -150 -138.56800842285156 99
   vertex -149.87422180175781 -138.75 100.5
   vertex -149.92347717285156 -138.75 99
  endloop
 endfacet
 facet normal 0.97361563889424652 -0.22594351664992327 -0.031970533064276406
  outer loop
   vertex -149.92347717285156 -138.75 99
   vertex -149.87422180175781 -138.75 100.5
   vertex -150 -139.2919921875 100.5
  endloop
 endfacet
 facet normal 0.66443577487988215 -0.71306343056336596 -0.22375353640328113
  outer loop
   vertex -149.92347717285156 -138.75 99
   vertex -150 -139.2919921875 100.5
   vertex -150 -138.82130432128906 99
  endloop
 endfacet
 facet normal 0.25489001927057542 -0.92261357275740274 -0.28950867593228763
  outer loop
   vertex -150 -138.82130432128906 99
   vertex -150 -139.2919921875 100.5
   vertex -150.9375 -139.55099487304688 100.5
  endloop
 endfacet
 facet normal 0.33338800626057241 0.83143236878197846 0.44449145483708541
  outer loop
   vertex -151.875 -137.22941589355469 96
   vertex -152.8125 -136.875 96.04022216796875
   vertex -152.8125 -137.65541076660156 97.5
  endloop
 endfacet
 facet normal -0.58790646595075391 0.71338250268862913 0.38138090166001104
  outer loop
   vertex -152.8125 -137.65541076660156 97.5
   vertex -152.8125 -136.875 96.04022216796875
   vertex -152.83859252929688 -136.875 96
  endloop
 endfacet
 facet normal -0.55003712475159894 0.82804765619764376 -0.10861049885063088
  outer loop
   vertex -152.8125 -137.65541076660156 97.5
   vertex -151.875 -137.03266906738281 97.5
   vertex -151.875 -137.22941589355469 96
  endloop
 endfacet
 facet normal 0.78414956124362856 -0.43456451418106362 -0.44301596880473842
  outer loop
   vertex -150.9375 -137.8125 97.192832946777344
   vertex -150.76396179199219 -137.8125 97.5
   vertex -150.9375 -138.12564086914062 97.5
  endloop
 endfacet
 facet normal 0.91863246749607075 -0.31844131335825704 -0.23390066183905689
  outer loop
   vertex -151.47503662109375 -137.8125 96
   vertex -151.4180908203125 -138.75 97.5
   vertex -151.80001831054688 -138.75 96
  endloop
 endfacet
 facet normal 0.4605303434115624 -0.87986477401364294 -0.11725946549063525
  outer loop
   vertex -151.80001831054688 -138.75 96
   vertex -151.4180908203125 -138.75 97.5
   vertex -151.875 -138.98915100097656 97.5
  endloop
 endfacet
 facet normal -0.97858274132803236 -0.153501617625565 0.13716075153354995
  outer loop
   vertex -152.8125 -138.75 97.198928833007812
   vertex -152.9173583984375 -137.8125 97.5
   vertex -152.98054504394531 -138.75 96
  endloop
 endfacet
 facet normal -0.90914251807463198 -0.33489116974389765 0.2476040917603772
  outer loop
   vertex -152.98054504394531 -138.75 96
   vertex -152.9173583984375 -137.8125 97.5
   vertex -153.32588195800781 -137.8125 96
  endloop
 endfacet
 facet normal 0.46617690689857605 0.88453388591244797 0.016700184043919916
  outer loop
   vertex -150.43679809570312 -137.8125 99
   vertex -150.9375 -137.52029418945312 97.5
   vertex -150.9375 -137.54861450195312 99
  endloop
 endfacet
 facet normal -0.17992507602295074 0.98350504189057775 0.018568780087777837
  outer loop
   vertex -150.9375 -137.54861450195312 99
   vertex -150.9375 -137.52029418945312 97.5
   vertex -151.875 -137.72012329101562 99
  endloop
 endfacet
 facet normal -0.14345277645011828 0.78414044351381385 0.60377567504389562
  outer loop
   vertex -150.9375 -137.54861450195312 99
   vertex -151.875 -137.72012329101562 99
   vertex -151.875 -137.8125 99.119972229003906
  endloop
 endfacet
 facet normal -0.62102511872887001 0.62102511872887001 0.47817946820789553
  outer loop
   vertex -151.875 -137.8125 99.119972229003906
   vertex -151.875 -137.72012329101562 99
   vertex -151.96737670898438 -137.8125 99
  endloop
 endfacet
 facet normal -0.78954344222659434 -0.083875482544391838 0.60793589815450588
  outer loop
   vertex -151.875 -137.8125 99.119972229003906
   vertex -151.96737670898438 -137.8125 99
   vertex -151.875 -138.68206787109375 99
  endloop
 endfacet
 facet normal -0.96562193185904477 -0.10258080956472691 0.23885447917477207
  outer loop
   vertex -151.875 -138.68206787109375 99
   vertex -151.96737670898438 -137.8125 99
   vertex -151.875 -138.75 98.9708251953125
  endloop
 endfacet
 facet normal 0.86250179199715438 -0.19969733180556032 0.46498562824181722
  outer loop
   vertex -151.875 -138.68206787109375 99
   vertex -151.875 -138.75 98.9708251953125
   vertex -150.9375 -138.12564086914062 97.5
  endloop
 endfacet
 facet normal -0.64058839298773718 0.64058839298773718 0.42343006688091572
  outer loop
   vertex -151.875 -137.72012329101562 99
   vertex -152.8125 -137.8125 97.721450805664062
   vertex -151.96737670898438 -137.8125 99
  endloop
 endfacet
 facet normal -0.83013727574061336 -0.098873827201503117 0.54872221544282329
  outer loop
   vertex -151.96737670898438 -137.8125 99
   vertex -152.8125 -137.8125 97.721450805664062
   vertex -151.875 -138.75 98.9708251953125
  endloop
 endfacet
 facet normal 0.7285055617989773 0.30631805084445973 -0.61273884988207483
  outer loop
   vertex -149.92347717285156 -138.75 99
   vertex -150 -138.75 98.909019470214844
   vertex -150 -138.56800842285156 99
  endloop
 endfacet
 facet normal 0.61179045700113321 0.35370738234634214 -0.707533408678377
  outer loop
   vertex -150 -138.56800842285156 99
   vertex -150 -138.75 98.909019470214844
   vertex -150.43679809570312 -137.8125 99
  endloop
 endfacet
 facet normal 0.64629066018536496 0.37365371596280283 0.66535049643353716
  outer loop
   vertex -150 -138.56800842285156 99
   vertex -150.43679809570312 -137.8125 99
   vertex -150.9375 -137.8125 99.486358642578125
  endloop
 endfacet
 facet normal 0.42032917249825086 0.79754142860862753 0.43272515110615561
  outer loop
   vertex -150.9375 -137.8125 99.486358642578125
   vertex -150.43679809570312 -137.8125 99
   vertex -150.9375 -137.54861450195312 99
  endloop
 endfacet
 facet normal -0.18322302374832319 0.86407825387159509 0.46882629486275229
  outer loop
   vertex -150.9375 -137.8125 99.486358642578125
   vertex -150.9375 -137.54861450195312 99
   vertex -151.875 -137.8125 99.119972229003906
  endloop
 endfacet
 facet normal -0.44814076395465474 -0.69399451641511412 -0.56350817817303278
  outer loop
   vertex -150.9375 -138.75 98.268936157226562
   vertex -151.85676574707031 -138.75 99
   vertex -150.9375 -138.12564086914062 97.5
  endloop
 endfacet
 facet normal -0.79129906476734435 -0.2123994569624835 -0.57335177751566124
  outer loop
   vertex -150.9375 -138.12564086914062 97.5
   vertex -151.85676574707031 -138.75 99
   vertex -151.875 -138.68206787109375 99
  endloop
 endfacet
 facet normal -0.85233937439306495 -0.22009220529595061 0.47442281988454554
  outer loop
   vertex -151.875 -138.75 98.9708251953125
   vertex -152.8125 -137.8125 97.721450805664062
   vertex -152.69367980957031 -138.75 97.5
  endloop
 endfacet
 facet normal -0.53918959435746761 -0.25772938255856609 0.80177936285652174
  outer loop
   vertex -152.69367980957031 -138.75 97.5
   vertex -152.8125 -137.8125 97.721450805664062
   vertex -152.8125 -138.50141906738281 97.5
  endloop
 endfacet
 facet normal 0.59139907927699809 -0.63468144287912376 -0.4974199383772151
  outer loop
   vertex -150 -138.75 98.909019470214844
   vertex -149.92347717285156 -138.75 99
   vertex -150 -138.82130432128906 99
  endloop
 endfacet
 facet normal -0.29467057355491239 -0.88083897508264852 -0.37052928771713589
  outer loop
   vertex -150.9375 -138.75 98.268936157226562
   vertex -150.9375 -139.05752563476562 99
   vertex -151.85676574707031 -138.75 99
  endloop
 endfacet
 facet normal -0.31434994487026702 -0.9396651994000812 0.13495712354842884
  outer loop
   vertex -151.85676574707031 -138.75 99
   vertex -150.9375 -139.05752563476562 99
   vertex -151.21278381347656 -138.75 100.5
  endloop
 endfacet
 facet normal -0.89215851097473897 -0.23947201720907751 0.3830226419797555
  outer loop
   vertex -151.85676574707031 -138.75 99
   vertex -151.21278381347656 -138.75 100.5
   vertex -151.875 -138.68206787109375 99
  endloop
 endfacet
 facet normal -0.7281941678475653 0.59032109478554695 0.348215822391782
  outer loop
   vertex -151.875 -138.68206787109375 99
   vertex -151.21278381347656 -138.75 100.5
   vertex -150.9375 -137.8125 99.486358642578125
  endloop
 endfacet
 facet normal -0.36103311649281433 -0.12745480087708844 0.92380212303764919
  outer loop
   vertex -151.875 -138.68206787109375 99
   vertex -150.9375 -137.8125 99.486358642578125
   vertex -151.875 -137.8125 99.119972229003906
  endloop
 endfacet
 facet normal 0.69190614956136831 0.61224309888058603 0.38265424089151062
  outer loop
   vertex -150 -138.56800842285156 99
   vertex -150.9375 -137.8125 99.486358642578125
   vertex -150.9375 -138.44602966308594 100.5
  endloop
 endfacet
 facet normal -0.68349972888819566 0.61899596450338523 0.38687480731922402
  outer loop
   vertex -150.9375 -138.44602966308594 100.5
   vertex -150.9375 -137.8125 99.486358642578125
   vertex -151.21278381347656 -138.75 100.5
  endloop
 endfacet
 facet normal 0.71210658449287401 0.61736375430950363 0.33431453331670807
  outer loop
   vertex -149.87422180175781 -138.75 100.5
   vertex -150 -138.60491943359375 100.5
   vertex -150 -138.75 100.76791381835938
  endloop
 endfacet
 facet normal 0.18608778787341743 0.8639867118201997 0.46786568265101142
  outer loop
   vertex -150 -138.75 100.76791381835938
   vertex -150 -138.60491943359375 100.5
   vertex -150.9375 -138.75 101.14079284667969
  endloop
 endfacet
 facet normal 0.29660536221000061 -0.59658212271585698 0.74573120490168332
  outer loop
   vertex -150 -138.75 100.76791381835938
   vertex -150.9375 -138.75 101.14079284667969
   vertex -150.9375 -139.55099487304688 100.5
  endloop
 endfacet
 facet normal 0.88587222184109182 -0.20558121409448535 0.41589273975601548
  outer loop
   vertex -149.87422180175781 -138.75 100.5
   vertex -150 -138.75 100.76791381835938
   vertex -150 -139.2919921875 100.5
  endloop
 endfacet
 facet normal 0.12151622163820762 -0.43984662763352633 0.88981388617968193
  outer loop
   vertex -150 -139.2919921875 100.5
   vertex -150 -138.75 100.76791381835938
   vertex -150.9375 -139.55099487304688 100.5
  endloop
 endfacet
endsolid
