solid ITK-SNAP coord sys for 3D Slicer: SPACE=RAS
 facet normal 0.77869227469741997 0.59258956621591685 -0.2060969367520761
  outer loop
   vertex -92.625755310058594 -124.6875 105
   vertex -92.8125 -124.6875 104.29442596435547
   vertex -92.8125 -124.44210815429688 105
  endloop
 endfacet
 facet normal 0.10089709085832005 0.93968732186375381 -0.32681418908127913
  outer loop
   vertex -92.8125 -124.44210815429688 105
   vertex -92.8125 -124.6875 104.29442596435547
   vertex -93.75 -124.34144592285156 105
  endloop
 endfacet
 facet normal 0.10435405027596607 0.9718831057989018 -0.21107690743821772
  outer loop
   vertex -92.8125 -124.44210815429688 105
   vertex -93.75 -124.34144592285156 105
   vertex -93.75 -124.01567077636719 106.5
  endloop
 endfacet
 facet normal -0.71317595297620973 0.68501558144791497 -0.14877403426018254
  outer loop
   vertex -93.75 -124.01567077636719 106.5
   vertex -93.75 -124.34144592285156 105
   vertex -94.082389831542969 -124.6875 105
  endloop
 endfacet
 facet normal -0.64443232269389061 0.74092372807124363 -0.1890476412134442
  outer loop
   vertex -93.75 -124.01567077636719 106.5
   vertex -94.082389831542969 -124.6875 105
   vertex -94.522422790527344 -124.6875 106.5
  endloop
 endfacet
 facet normal -0.95507679496446363 -0.096588047941271071 -0.28017684543035076
  outer loop
   vertex -94.522422790527344 -124.6875 106.5
   vertex -94.082389831542969 -124.6875 105
   vertex -93.987579345703125 -125.625 105
  endloop
 endfacet
 facet normal -0.83109999299010717 0.28751315929853621 -0.47603464672439377
  outer loop
   vertex -94.522422790527344 -124.6875 106.5
   vertex -93.987579345703125 -125.625 105
   vertex -94.6875 -125.16468048095703 106.5
  endloop
 endfacet
 facet normal -0.82751325242102536 0.29612404429846378 -0.47700352981492455
  outer loop
   vertex -94.6875 -125.16468048095703 106.5
   vertex -93.987579345703125 -125.625 105
   vertex -94.6875 -125.625 106.2142333984375
  endloop
 endfacet
 facet normal -0.90068020441089347 0.22915955611024488 -0.36913556754356114
  outer loop
   vertex -94.6875 -125.16468048095703 106.5
   vertex -94.6875 -125.625 106.2142333984375
   vertex -94.804618835449219 -125.625 106.5
  endloop
 endfacet
 facet normal -0.84534430293527696 -0.40664578824139624 -0.34645665298909217
  outer loop
   vertex -94.804618835449219 -125.625 106.5
   vertex -94.6875 -125.625 106.2142333984375
   vertex -94.6875 -125.86846923828125 106.5
  endloop
 endfacet
 facet normal -0.88598636262165908 -0.42619631024708854 0.18271527133824697
  outer loop
   vertex -94.804618835449219 -125.625 106.5
   vertex -94.6875 -125.86846923828125 106.5
   vertex -94.6875 -125.625 107.06790924072266
  endloop
 endfacet
 facet normal -0.36048048263579152 -0.8573044349162342 0.36753629414198408
  outer loop
   vertex -94.6875 -125.625 107.06790924072266
   vertex -94.6875 -125.86846923828125 106.5
   vertex -93.75 -125.625 107.98741149902344
  endloop
 endfacet
 facet normal -0.6929624188820015 0.1436108423960617 0.70652601648028435
  outer loop
   vertex -94.6875 -125.625 107.06790924072266
   vertex -93.75 -125.625 107.98741149902344
   vertex -93.75 -124.6875 107.79685211181641
  endloop
 endfacet
 facet normal 0.68690684513848776 0.14476052169714568 0.71218212379970613
  outer loop
   vertex -93.75 -124.6875 107.79685211181641
   vertex -93.75 -125.625 107.98741149902344
   vertex -92.8125 -124.6875 106.89262390136719
  endloop
 endfacet
 facet normal 0.53237333089897099 0.64180691456678551 0.55196242712869292
  outer loop
   vertex -93.75 -124.6875 107.79685211181641
   vertex -92.8125 -124.6875 106.89262390136719
   vertex -92.8125 -124.34983825683594 106.5
  endloop
 endfacet
 facet normal 0.81722324700942695 0.43695537342923491 0.37578739491724145
  outer loop
   vertex -92.8125 -124.34983825683594 106.5
   vertex -92.8125 -124.6875 106.89262390136719
   vertex -92.6319580078125 -124.6875 106.5
  endloop
 endfacet
 facet normal 0.88148754945389252 0.47131640314241291 -0.028992210793072213
  outer loop
   vertex -92.8125 -124.34983825683594 106.5
   vertex -92.6319580078125 -124.6875 106.5
   vertex -92.8125 -124.44210815429688 105
  endloop
 endfacet
 facet normal 0.79577202703175021 0.60558736182241479 0.0032906222431275073
  outer loop
   vertex -92.8125 -124.44210815429688 105
   vertex -92.6319580078125 -124.6875 106.5
   vertex -92.625755310058594 -124.6875 105
  endloop
 endfacet
 facet normal 0.017504880436668011 0.90669006189325874 -0.42143411208028314
  outer loop
   vertex -93.75 -124.34144592285156 105
   vertex -92.8125 -124.6875 104.29442596435547
   vertex -93.75 -124.6875 104.25548553466797
  endloop
 endfacet
 facet normal 0.037948652407770102 -0.40478810404314808 -0.91362272881402629
  outer loop
   vertex -93.75 -124.6875 104.25548553466797
   vertex -92.8125 -124.6875 104.29442596435547
   vertex -93.75 -125.625 104.67085266113281
  endloop
 endfacet
 facet normal -0.78488218182082947 -0.25100573786841757 -0.56652985818693224
  outer loop
   vertex -93.75 -124.6875 104.25548553466797
   vertex -93.75 -125.625 104.67085266113281
   vertex -93.987579345703125 -125.625 105
  endloop
 endfacet
 facet normal -0.591857864449154 -0.68352076468426992 -0.42720443880549475
  outer loop
   vertex -93.987579345703125 -125.625 105
   vertex -93.75 -125.625 104.67085266113281
   vertex -93.75 -125.83071899414062 105
  endloop
 endfacet
 facet normal -0.61244857599034774 -0.70730042487536826 -0.3530337812993522
  outer loop
   vertex -93.987579345703125 -125.625 105
   vertex -93.75 -125.83071899414062 105
   vertex -94.6875 -125.625 106.2142333984375
  endloop
 endfacet
 facet normal -0.70956532955778906 -0.53636655924239873 -0.45697697668046316
  outer loop
   vertex -94.6875 -125.625 106.2142333984375
   vertex -93.75 -125.83071899414062 105
   vertex -94.6875 -125.86846923828125 106.5
  endloop
 endfacet
 facet normal -0.68649419056218597 0.65938737158214111 -0.30648657478324287
  outer loop
   vertex -93.75 -124.34144592285156 105
   vertex -93.75 -124.6875 104.25548553466797
   vertex -94.082389831542969 -124.6875 105
  endloop
 endfacet
 facet normal -0.90926122879951532 -0.091954665448336401 -0.40594132248919901
  outer loop
   vertex -94.082389831542969 -124.6875 105
   vertex -93.75 -124.6875 104.25548553466797
   vertex -93.987579345703125 -125.625 105
  endloop
 endfacet
 facet normal 0.94833591497204683 -0.19406104796069684 -0.25099661758383657
  outer loop
   vertex -92.8125 -124.6875 104.29442596435547
   vertex -92.625755310058594 -124.6875 105
   vertex -92.8125 -125.60008239746094 105
  endloop
 endfacet
 facet normal 0.97939408765419844 -0.20041658236921944 -0.024908122760297982
  outer loop
   vertex -92.8125 -125.60008239746094 105
   vertex -92.625755310058594 -124.6875 105
   vertex -92.8125 -125.625 105.20049285888672
  endloop
 endfacet
 facet normal 0.66673015349165587 -0.73960910780779832 -0.091919911187650569
  outer loop
   vertex -92.8125 -125.60008239746094 105
   vertex -92.8125 -125.625 105.20049285888672
   vertex -92.840141296386719 -125.625 105
  endloop
 endfacet
 facet normal 0.23957590911204082 -0.97031563558701517 -0.03302954902062194
  outer loop
   vertex -92.840141296386719 -125.625 105
   vertex -92.8125 -125.625 105.20049285888672
   vertex -92.8125 -125.66923522949219 106.5
  endloop
 endfacet
 facet normal 0.22041449746842814 -0.97485431407032841 -0.032810297837869665
  outer loop
   vertex -92.840141296386719 -125.625 105
   vertex -92.8125 -125.66923522949219 106.5
   vertex -93.75 -125.83071899414062 105
  endloop
 endfacet
 facet normal 0.55934151272449628 -0.78542647137535682 -0.26503269648465627
  outer loop
   vertex -93.75 -125.83071899414062 105
   vertex -92.8125 -125.66923522949219 106.5
   vertex -93.75 -126.33687591552734 106.5
  endloop
 endfacet
 facet normal -0.4278824776739254 -0.85639219572557956 -0.28897922485871441
  outer loop
   vertex -93.75 -125.83071899414062 105
   vertex -93.75 -126.33687591552734 106.5
   vertex -94.6875 -125.86846923828125 106.5
  endloop
 endfacet
 facet normal -0.41087799573835815 -0.82235830468815785 0.39358111149856861
  outer loop
   vertex -94.6875 -125.86846923828125 106.5
   vertex -93.75 -126.33687591552734 106.5
   vertex -93.75 -125.625 107.98741149902344
  endloop
 endfacet
 facet normal 0.31827346117041666 -0.3530633036804714 -0.87980015202819473
  outer loop
   vertex -92.8125 -125.60008239746094 105
   vertex -92.840141296386719 -125.625 105
   vertex -93.75 -125.625 104.67085266113281
  endloop
 endfacet
 facet normal 0.18830200422496068 -0.83282643961786584 -0.52052135083807283
  outer loop
   vertex -93.75 -125.625 104.67085266113281
   vertex -92.840141296386719 -125.625 105
   vertex -93.75 -125.83071899414062 105
  endloop
 endfacet
 facet normal 0.28207255841886025 -0.58682507399343919 -0.7589936787086129
  outer loop
   vertex -92.8125 -125.60008239746094 105
   vertex -93.75 -125.625 104.67085266113281
   vertex -92.8125 -124.6875 104.29442596435547
  endloop
 endfacet
 facet normal 0.33519140627582367 0.94037260281217383 -0.05784538909103612
  outer loop
   vertex -92.8125 -124.44210815429688 105
   vertex -93.75 -124.01567077636719 106.5
   vertex -92.8125 -124.34983825683594 106.5
  endloop
 endfacet
 facet normal 0.30174469887116256 0.84653855244950804 0.43854602485924182
  outer loop
   vertex -92.8125 -124.34983825683594 106.5
   vertex -93.75 -124.01567077636719 106.5
   vertex -93.75 -124.6875 107.79685211181641
  endloop
 endfacet
 facet normal 0.97929756936330981 -0.20070442464074875 -0.026343966457988279
  outer loop
   vertex -92.8125 -125.625 105.20049285888672
   vertex -92.625755310058594 -124.6875 105
   vertex -92.777542114257812 -125.625 106.5
  endloop
 endfacet
 facet normal 0.98814808430201873 -0.15344923294800716 0.0040861226020179305
  outer loop
   vertex -92.777542114257812 -125.625 106.5
   vertex -92.625755310058594 -124.6875 105
   vertex -92.6319580078125 -124.6875 106.5
  endloop
 endfacet
 facet normal 0.8996376482553381 -0.13970447268887012 0.41368437504011352
  outer loop
   vertex -92.777542114257812 -125.625 106.5
   vertex -92.6319580078125 -124.6875 106.5
   vertex -92.8125 -124.6875 106.89262390136719
  endloop
 endfacet
 facet normal 0.78440316790188191 -0.61989225859372599 -0.021101135539611123
  outer loop
   vertex -92.8125 -125.625 105.20049285888672
   vertex -92.777542114257812 -125.625 106.5
   vertex -92.8125 -125.66923522949219 106.5
  endloop
 endfacet
 facet normal 0.7408493384842687 -0.585472864597261 0.32918654663837466
  outer loop
   vertex -92.8125 -125.66923522949219 106.5
   vertex -92.777542114257812 -125.625 106.5
   vertex -92.8125 -125.625 106.57867431640625
  endloop
 endfacet
 facet normal 0.52740408639634451 -0.74057998761707733 0.4163966997870262
  outer loop
   vertex -92.8125 -125.66923522949219 106.5
   vertex -92.8125 -125.625 106.57867431640625
   vertex -93.75 -126.33687591552734 106.5
  endloop
 endfacet
 facet normal 0.54422292580848919 -0.75673699533130767 0.36217471877726648
  outer loop
   vertex -93.75 -126.33687591552734 106.5
   vertex -92.8125 -125.625 106.57867431640625
   vertex -93.75 -125.625 107.98741149902344
  endloop
 endfacet
 facet normal -0.61123088480989152 0.70275101036598431 0.36405744448384142
  outer loop
   vertex -93.75 -124.01567077636719 106.5
   vertex -94.522422790527344 -124.6875 106.5
   vertex -93.75 -124.6875 107.79685211181641
  endloop
 endfacet
 facet normal -0.78015477305411718 0.41885506371942277 0.46467081431641172
  outer loop
   vertex -93.75 -124.6875 107.79685211181641
   vertex -94.522422790527344 -124.6875 106.5
   vertex -94.6875 -125.625 107.06790924072266
  endloop
 endfacet
 facet normal 0.90551470591257588 -0.13473993241869464 0.40235341180095258
  outer loop
   vertex -92.777542114257812 -125.625 106.5
   vertex -92.8125 -124.6875 106.89262390136719
   vertex -92.8125 -125.625 106.57867431640625
  endloop
 endfacet
 facet normal 0.81853384428357723 -0.18241753242566425 0.544725793061133
  outer loop
   vertex -92.8125 -125.625 106.57867431640625
   vertex -92.8125 -124.6875 106.89262390136719
   vertex -93.75 -125.625 107.98741149902344
  endloop
 endfacet
 facet normal -0.91351702904633592 0.31602474949996912 0.25615424131924497
  outer loop
   vertex -94.522422790527344 -124.6875 106.5
   vertex -94.6875 -125.16468048095703 106.5
   vertex -94.6875 -125.625 107.06790924072266
  endloop
 endfacet
 facet normal -0.95032978089520892 0.24179186983545792 0.19598469130301266
  outer loop
   vertex -94.6875 -125.625 107.06790924072266
   vertex -94.6875 -125.16468048095703 106.5
   vertex -94.804618835449219 -125.625 106.5
  endloop
 endfacet
endsolid
